<svg xmlns="http://www.w3.org/2000/svg" id="Layer_1" viewBox="0 0 515.1794 158.6475">
    <path transform="translate(120 0)" stroke="#eff2f1" stroke-width="2.4px" fill="#eff2f1" d="M182.2797,11.0475c-22.93,0-43.35,10.69-56.6,27.34l11.62,21.89c8.39-16.31,25.37-27.48,44.97-27.48,27.92,0,50.55,22.63,50.55,50.55s-22.63,50.55-50.55,50.55v.09c-17.86-.03-34.56-9.64-43.63-25.12l-13.6-25.61.02-.03-5.23-9.79L84.2397,6.3975,4.9897,155.6475h24.48l16.61-31.26h16.2l11.44-21.65h-16.14l26.66-50.17,16.3,30.7-38.43,72.38h24.55l26.15-49.29,4.35,8.2c.82,1.7,5.22,9.1,5.22,9.1,13.36,19.79,36,31.96,59.91,31.98h0c39.93,0,72.3-32.37,72.3-72.3S222.2097,11.0475,182.2797,11.0475Z"/>
</svg>