<?xml version="1.0" standalone="no"?>
<!DOCTYPE svg PUBLIC "-//W3C//DTD SVG 20010904//EN"
 "http://www.w3.org/TR/2001/REC-SVG-20010904/DTD/svg10.dtd">
<svg version="1.0" xmlns="http://www.w3.org/2000/svg"
 width="4950.000000pt" height="935.000000pt" viewBox="0 0 4950.000000 935.000000"
 preserveAspectRatio="xMidYMid meet">

<g transform="translate(0.000000,935.000000) scale(0.100000,-0.100000)"
fill="#FFFFFF" stroke="none">
<path d="M14920 9343 c-41 -7 -129 -42 -179 -70 -63 -37 -209 -186 -231 -237
-10 -22 -26 -81 -35 -130 -16 -84 -16 -308 -6 -3180 6 -1700 11 -3254 11
-3453 l0 -363 562 0 561 0 -7 1507 c-18 4074 -27 5440 -37 5493 -17 87 -65
167 -154 256 -65 66 -96 89 -165 122 -117 56 -217 73 -320 55z"/>
<path d="M3905 9249 c-1016 -7 -1006 -6 -1266 -69 -596 -145 -1229 -487 -1643
-889 -125 -122 -166 -171 -379 -454 -166 -219 -185 -252 -265 -442 -162 -386
-299 -826 -338 -1087 -39 -266 14 -821 116 -1213 200 -770 605 -1342 1300
-1836 73 -52 153 -109 178 -127 246 -175 620 -324 1012 -401 296 -59 361 -63
1021 -68 l616 -5 91 31 c117 39 202 82 253 128 96 87 205 285 234 428 56 271
-98 531 -404 685 -151 75 -170 78 -677 85 -587 8 -774 25 -999 90 -255 74
-396 157 -680 400 -71 61 -158 133 -193 159 -51 39 -80 74 -160 194 -95 143
-208 351 -252 462 -77 193 -100 337 -100 621 0 200 1 216 30 327 102 402 278
759 497 1007 276 313 664 519 1190 634 91 20 107 20 838 9 409 -7 747 -9 751
-5 8 7 403 1316 404 1335 0 9 -30 12 -122 10 -68 -1 -541 -5 -1053 -9z"/>
<path d="M37415 8343 c-197 -27 -339 -128 -418 -298 -59 -124 -57 -106 -57
-651 l0 -503 -479 -3 c-264 -2 -483 -6 -487 -10 -3 -4 -9 -226 -12 -493 l-5
-485 481 7 480 6 5 -1184 c3 -802 8 -1216 16 -1284 39 -335 102 -539 252 -812
43 -77 77 -121 164 -212 131 -135 322 -282 449 -346 145 -72 404 -140 666
-176 299 -40 776 29 1135 165 206 77 339 145 521 264 l101 66 -210 425 c-115
234 -210 427 -212 429 -1 1 -80 -36 -176 -82 -350 -169 -587 -237 -829 -237
-150 0 -244 24 -362 91 -48 28 -92 50 -98 50 -20 0 -152 147 -174 195 -44 92
-98 248 -112 323 -12 61 -14 268 -14 1192 l0 1117 742 9 743 9 197 475 c108
261 197 478 197 483 1 4 -423 7 -941 7 l-943 0 3 524 4 525 -43 88 c-55 114
-164 228 -261 273 -103 48 -219 67 -323 53z"/>
<path d="M32951 7090 c-173 -14 -315 -45 -501 -112 -196 -70 -535 -232 -635
-303 -225 -160 -400 -481 -481 -883 -35 -175 -44 -425 -20 -567 58 -340 253
-640 511 -785 33 -19 102 -63 153 -97 104 -71 176 -109 295 -157 289 -116 732
-198 1277 -236 222 -15 296 -31 419 -92 88 -43 118 -65 185 -132 190 -190 217
-399 75 -582 -94 -122 -330 -237 -569 -278 -299 -50 -808 -37 -1100 29 -306
69 -643 220 -877 394 l-82 60 -129 -207 c-317 -511 -382 -618 -383 -626 -2
-12 257 -175 407 -256 654 -355 1402 -479 2228 -369 521 69 933 235 1228 493
189 165 348 392 417 595 31 90 59 266 71 443 30 449 -54 686 -344 973 -220
217 -622 432 -946 505 -47 10 -263 48 -480 84 -628 103 -904 163 -1029 224
-59 29 -121 98 -169 187 -24 45 -27 60 -27 150 1 147 28 229 103 308 114 119
293 215 473 254 120 26 526 26 684 0 208 -34 422 -94 753 -211 112 -39 186
-46 297 -25 171 31 313 156 369 322 66 198 29 372 -108 511 -69 71 -152 120
-275 166 -96 35 -481 132 -616 154 -305 51 -917 85 -1174 66z"/>
<path d="M18345 7069 c-519 -62 -1002 -300 -1388 -683 -438 -433 -658 -1091
-657 -1966 1 -448 77 -827 239 -1187 123 -273 319 -551 500 -708 269 -235 570
-403 930 -519 643 -207 1345 -169 2056 111 484 191 609 321 592 620 -8 158
-20 193 -84 258 -76 78 -159 137 -240 171 -64 27 -76 29 -198 28 l-130 -1 -60
-36 c-60 -37 -367 -171 -460 -201 -244 -78 -696 -115 -892 -73 -206 45 -437
145 -598 258 -173 123 -292 263 -388 454 -77 154 -157 395 -157 473 l0 22
1821 0 1821 0 -5 328 c-7 414 -30 610 -104 906 -85 339 -210 611 -397 862 -88
120 -310 349 -422 437 -297 233 -610 366 -1009 429 -103 16 -189 21 -410 23
-154 2 -316 -1 -360 -6z m543 -995 c184 -27 369 -97 508 -192 131 -88 282
-280 370 -467 61 -132 154 -423 154 -485 0 -6 -457 -10 -1250 -10 l-1250 0 0
43 c0 82 77 321 151 470 151 301 414 524 709 601 208 53 423 68 608 40z"/>
<path d="M48395 7066 c-215 -42 -532 -135 -652 -193 -116 -54 -281 -200 -446
-393 l-47 -55 0 106 c0 200 -72 342 -225 444 -170 112 -423 127 -606 34 -80
-40 -143 -104 -204 -209 l-50 -85 -3 -2427 -4 -2428 556 0 556 0 0 1343 c0
739 5 1432 10 1542 27 534 97 730 358 999 146 150 361 248 603 277 283 33 738
-43 970 -162 30 -15 40 -17 44 -7 8 23 245 1091 243 1093 -37 31 -210 81 -368
106 -164 27 -626 36 -735 15z"/>
<path d="M26044 7046 c-121 -38 -266 -153 -378 -299 -56 -73 -56 -74 -56 -144
0 -38 -3 -111 -7 -162 l-6 -92 -156 154 c-86 84 -181 174 -211 199 -160 133
-412 256 -593 289 -133 24 -190 29 -420 39 -503 21 -771 -28 -1122 -202 -320
-160 -661 -441 -910 -753 -402 -501 -593 -1155 -554 -1892 24 -457 144 -835
380 -1198 85 -132 141 -203 272 -352 352 -401 798 -634 1382 -722 417 -63 600
-54 1015 49 195 48 235 62 340 116 169 87 308 194 468 358 l109 113 6 -186 c4
-102 7 -243 7 -312 0 -70 3 -141 6 -159 l7 -32 518 4 c285 2 520 6 522 8 3 3
15 1068 28 2368 21 2211 21 2365 6 2397 -64 135 -218 306 -327 364 -110 59
-232 76 -326 47z m-1588 -1037 c156 -29 345 -109 502 -212 374 -246 574 -532
646 -924 43 -232 46 -609 6 -798 -93 -438 -356 -809 -710 -998 -424 -227 -951
-236 -1378 -24 -164 81 -276 166 -387 294 -205 234 -343 521 -395 818 -81 470
111 1127 420 1435 230 230 565 369 1020 424 51 6 208 -2 276 -15z"/>
<path d="M12785 7040 c-851 -7 -841 -6 -1080 -70 -571 -151 -1137 -496 -1433
-872 -278 -353 -274 -346 -387 -628 -105 -262 -188 -533 -214 -700 -25 -151
-7 -478 40 -740 108 -600 400 -1103 854 -1470 137 -110 406 -298 510 -356 219
-123 500 -210 834 -260 107 -16 553 -33 912 -33 233 -1 236 -1 320 28 124 42
182 74 231 130 160 184 207 404 122 573 -53 104 -193 224 -330 281 -92 39
-161 47 -403 47 -309 1 -628 16 -736 35 -200 35 -367 98 -505 191 -39 26 -125
92 -193 148 -67 56 -142 116 -166 133 -58 43 -201 254 -281 417 -105 212 -137
375 -126 624 6 121 12 162 41 263 92 319 242 589 429 772 204 200 452 329 806
419 l155 39 485 -5 c267 -4 542 -9 613 -12 102 -5 127 -3 127 8 0 10 76 258
316 1031 5 15 -3 17 -78 15 -46 -1 -434 -5 -863 -8z"/>
<path d="M29820 7040 c-85 -14 -362 -87 -491 -130 -139 -46 -236 -93 -309
-151 -70 -54 -235 -223 -310 -316 l-58 -71 5 81 c16 279 -152 509 -418 572
-92 21 -219 19 -309 -6 -146 -40 -227 -108 -314 -260 l-46 -82 0 -1632 c0
-897 3 -1983 7 -2413 l6 -782 197 0 c108 0 353 3 543 7 l347 6 0 1211 c0 666
5 1332 10 1481 23 617 72 783 314 1073 77 93 150 151 271 219 173 96 332 128
599 120 275 -8 513 -60 737 -161 l57 -25 5 27 c3 15 58 265 121 556 64 291
116 534 116 541 0 14 -103 57 -186 79 -166 43 -305 58 -574 61 -146 2 -290 0
-320 -5z"/>
<path d="M44762 7035 c-101 -28 -204 -97 -300 -199 -110 -118 -142 -168 -142
-223 0 -26 -3 -98 -7 -160 l-6 -112 -172 167 c-205 199 -303 272 -490 363
-250 122 -381 143 -870 144 -330 0 -357 -1 -465 -24 -461 -95 -864 -337 -1267
-762 -402 -424 -614 -889 -688 -1514 -21 -170 -24 -554 -6 -700 66 -538 255
-951 628 -1376 311 -356 653 -564 1120 -685 303 -78 717 -113 943 -80 129 19
416 85 531 122 206 67 411 207 625 426 l112 114 -5 -306 c-2 -168 -5 -317 -6
-331 l-3 -26 540 -5 c298 -3 542 -4 542 -4 1 1 12 1060 24 2355 19 1906 20
2361 10 2390 -35 99 -189 286 -295 357 -106 71 -247 99 -353 69z m-1592 -1041
c258 -48 532 -200 758 -418 309 -298 415 -590 416 -1146 1 -253 -8 -328 -59
-504 -101 -350 -341 -668 -628 -836 -232 -135 -477 -200 -757 -200 -405 0
-769 144 -1015 401 -271 283 -434 658 -452 1035 -23 474 192 1058 479 1305
207 178 520 313 847 364 120 18 312 18 411 -1z"/>
<path d="M3156 6569 c-187 -62 -260 -110 -341 -223 -91 -128 -150 -273 -161
-396 -23 -245 136 -486 412 -624 153 -76 154 -76 699 -86 617 -12 701 -19 930
-76 264 -66 436 -162 710 -398 72 -62 162 -136 200 -165 58 -44 84 -74 158
-184 279 -417 367 -676 367 -1072 -1 -217 -9 -283 -54 -442 -236 -821 -680
-1280 -1451 -1501 -279 -80 -222 -77 -1057 -63 -407 7 -743 10 -746 6 -3 -3
-97 -307 -208 -675 l-201 -670 321 1 c744 2 1845 18 1905 29 553 91 1188 381
1667 760 86 68 194 169 293 274 104 111 432 548 474 632 90 180 262 648 337
919 77 278 94 404 85 630 -47 1218 -488 2083 -1390 2725 -49 35 -128 92 -174
126 -314 232 -791 405 -1296 468 -235 30 -383 36 -883 35 l-507 0 -89 -30z"/>
</g>
</svg>
