<?xml version="1.0" encoding="utf-8"?>
<svg xmlns="http://www.w3.org/2000/svg" fill="none" width="40" height="40" overflow="visible" preserveAspectRatio="none" style="display: block;" viewBox="0 0 40 40">
<g clip-path="url(#clip0_0_784)" id="Frame">
<path d="M28 0H12C5.37258 0 0 5.37258 0 12V28C0 34.6274 5.37258 40 12 40H28C34.6274 40 40 34.6274 40 28V12C40 5.37258 34.6274 0 28 0Z" fill="var(--fill-0, #0268F8)" id="Vector"/>
<g id="Group 1">
<path d="M19.4018 11.2751C22.2963 10.8305 25.2565 11.4243 27.7484 12.95L27.7777 12.968C30.2645 14.5004 32.1168 16.8622 33 19.6279L28.9368 20.949C28.3714 19.1782 27.1789 17.6463 25.5529 16.6444L25.5337 16.6326C23.9025 15.6337 21.9543 15.2402 20.0444 15.5337L20.0219 15.5371C18.1055 15.837 16.3781 16.8053 15.1454 18.2443C13.9675 19.6192 13.3133 21.338 13.2711 23.1109C13.2711 24.0033 13.4297 24.8829 13.7324 25.6977C14.0351 26.5123 14.474 27.2394 15.0148 27.8424C15.5553 28.4449 16.1853 28.9101 16.8625 29.2228C17.5389 29.5352 18.2553 29.6924 18.9727 29.6924C19.69 29.6924 20.4064 29.5352 21.0828 29.2228C21.7601 28.9101 22.3901 28.4449 22.9305 27.8424C23.4713 27.2394 23.9102 26.5123 24.2129 25.6977C24.2658 25.5552 24.3143 25.4107 24.3582 25.2647H19.8324L19.8377 22.878L28.9423 20.9571V23.1109C28.9423 24.5126 28.6949 25.9049 28.2101 27.2098C27.7252 28.5148 27.0098 29.7137 26.0955 30.733C25.1809 31.7528 24.0833 32.5745 22.8593 33.1397C21.6345 33.7053 20.3132 34 18.9727 34C17.6321 34 16.3108 33.7053 15.086 33.1397C13.862 32.5745 12.7645 31.7528 11.8498 30.733C10.9355 29.7137 10.2201 28.5148 9.73524 27.2098C9.28184 25.9894 9.03603 24.6926 9.00614 23.383L9.00033 23.3831C8.97884 20.4712 10.0132 17.6483 11.9158 15.4273C13.8182 13.2065 16.4623 11.735 19.3678 11.2804L19.4018 11.2751Z" fill="var(--fill-0, #BEFF68)" id="Vector_2"/>
<path d="M10.7585 6L19.8379 7.9289V10.34L10.7585 10.34V6Z" fill="var(--fill-0, #BEFF68)" id="Vector_3"/>
</g>
</g>
<defs>
<clipPath id="clip0_0_784">
<rect fill="white" height="40" width="40"/>
</clipPath>
</defs>
</svg>