<svg width="214" height="72" viewBox="0 0 214 72" fill="none" xmlns="http://www.w3.org/2000/svg">
<path d="M91.4058 46.7179V23.6718H95.6199V33.2524H105.958V23.6718H110.172V46.7179H105.958V36.6764H95.6199V46.7179H91.4058ZM120.182 47.113C118.778 47.113 117.625 46.8935 116.725 46.4545C115.826 45.9936 115.156 45.39 114.717 44.6438C114.278 43.8975 114.059 43.0744 114.059 42.1745C114.059 40.6601 114.651 39.431 115.836 38.4872C117.022 37.5434 118.8 37.0715 121.17 37.0715H125.318V36.6764C125.318 35.557 125 34.7339 124.364 34.2072C123.727 33.6804 122.937 33.417 121.993 33.417C121.137 33.417 120.391 33.6255 119.754 34.0425C119.118 34.4376 118.723 35.0302 118.569 35.8204H114.454C114.563 34.6352 114.959 33.6036 115.639 32.7256C116.341 31.8477 117.241 31.1782 118.339 30.7173C119.436 30.2344 120.665 29.993 122.026 29.993C124.353 29.993 126.185 30.5746 127.524 31.7379C128.863 32.9012 129.532 34.5474 129.532 36.6764V46.7179H125.944L125.549 44.0841C125.066 44.962 124.386 45.6863 123.508 46.257C122.652 46.8277 121.543 47.113 120.182 47.113ZM121.137 43.8207C122.344 43.8207 123.277 43.4256 123.936 42.6355C124.616 41.8453 125.044 40.8686 125.22 39.7053H121.631C120.512 39.7053 119.71 39.9138 119.228 40.3308C118.745 40.7259 118.503 41.2198 118.503 41.8124C118.503 42.4489 118.745 42.9427 119.228 43.2939C119.71 43.6451 120.347 43.8207 121.137 43.8207ZM133.554 46.7179V30.3881H137.307L137.702 33.4499C138.295 32.3964 139.096 31.5623 140.106 30.9478C141.137 30.3113 142.344 29.993 143.727 29.993V34.4376H142.542C141.62 34.4376 140.797 34.5803 140.073 34.8656C139.348 35.151 138.778 35.6448 138.361 36.3472C137.966 37.0495 137.768 38.0262 137.768 39.2773V46.7179H133.554ZM151.019 46.7179L145.027 30.3881H149.439L153.587 42.7342L157.735 30.3881H162.147L156.122 46.7179H151.019ZM171.936 47.113C170.29 47.113 168.83 46.7618 167.557 46.0595C166.284 45.3571 165.285 44.3694 164.561 43.0964C163.837 41.8234 163.475 40.3528 163.475 38.6847C163.475 36.9946 163.826 35.4912 164.528 34.1742C165.252 32.8573 166.24 31.8367 167.491 31.1124C168.764 30.3661 170.257 29.993 171.969 29.993C173.571 29.993 174.987 30.3442 176.216 31.0465C177.445 31.7489 178.4 32.7146 179.08 33.9438C179.783 35.151 180.134 36.5008 180.134 37.9933C180.134 38.2347 180.123 38.4872 180.101 38.7505C180.101 39.0139 180.09 39.2883 180.068 39.5736H167.656C167.744 40.8466 168.183 41.8453 168.973 42.5696C169.785 43.2939 170.762 43.6561 171.903 43.6561C172.759 43.6561 173.472 43.4695 174.043 43.0964C174.636 42.7013 175.075 42.1965 175.36 41.5819H179.64C179.333 42.6135 178.817 43.5573 178.092 44.4133C177.39 45.2474 176.512 45.9058 175.459 46.3887C174.427 46.8716 173.253 47.113 171.936 47.113ZM171.969 33.417C170.937 33.417 170.026 33.7133 169.236 34.3059C168.446 34.8766 167.941 35.7545 167.722 36.9398H175.854C175.788 35.8643 175.393 35.0083 174.668 34.3718C173.944 33.7353 173.044 33.417 171.969 33.417ZM190.427 47.113C188.979 47.113 187.706 46.8825 186.608 46.4216C185.511 45.9387 184.633 45.2803 183.974 44.4462C183.316 43.6122 182.921 42.6464 182.789 41.549H187.036C187.168 42.1855 187.519 42.7342 188.09 43.1952C188.682 43.6341 189.44 43.8536 190.361 43.8536C191.283 43.8536 191.953 43.6671 192.37 43.2939C192.809 42.9208 193.028 42.4928 193.028 42.0099C193.028 41.3076 192.721 40.8357 192.106 40.5942C191.492 40.3308 190.636 40.0784 189.538 39.837C188.836 39.6834 188.123 39.4968 187.398 39.2773C186.674 39.0578 186.005 38.7835 185.39 38.4542C184.797 38.1031 184.315 37.6641 183.941 37.1373C183.568 36.5886 183.382 35.9192 183.382 35.129C183.382 33.6804 183.952 32.4622 185.094 31.4745C186.257 30.4868 187.881 29.993 189.966 29.993C191.898 29.993 193.434 30.443 194.576 31.3428C195.739 32.2427 196.43 33.4828 196.65 35.0632H192.666C192.425 33.856 191.514 33.2524 189.933 33.2524C189.143 33.2524 188.529 33.406 188.09 33.7133C187.673 34.0206 187.464 34.4047 187.464 34.8656C187.464 35.3485 187.782 35.7326 188.419 36.0179C189.056 36.3033 189.901 36.5666 190.954 36.8081C192.095 37.0715 193.138 37.3678 194.082 37.697C195.048 38.0043 195.816 38.4762 196.386 39.1127C196.957 39.7273 197.242 40.6162 197.242 41.7795C197.264 42.7891 197.001 43.7 196.452 44.5121C195.904 45.3242 195.113 45.9607 194.082 46.4216C193.05 46.8825 191.832 47.113 190.427 47.113ZM207.737 46.7179C206.025 46.7179 204.653 46.3009 203.622 45.4668C202.59 44.6328 202.074 43.1513 202.074 41.0222V33.9108H199.276V30.3881H202.074L202.568 26.0093H206.289V30.3881H210.7V33.9108H206.289V41.0552C206.289 41.8453 206.453 42.394 206.782 42.7013C207.134 42.9866 207.726 43.1293 208.56 43.1293H210.601V46.7179H207.737Z" fill="white"/>
<rect width="71.3333" height="71.3333" rx="20.5769" fill="#F1F1F1"/>
<g clip-path="url(#clip0_8_1956)">
<path d="M54.0735 41.3929C54.2177 41.5084 54.3125 41.6081 54.4544 41.7265C54.5404 41.7982 54.541 41.7982 54.6254 41.72C54.684 41.6654 54.741 41.6083 54.8012 41.5548C55.0439 41.3366 55.3703 41.3472 55.5962 41.5847C55.6861 41.6799 55.7709 41.7805 55.8501 41.8859C56.0454 42.1446 56.0259 42.4828 55.8054 42.7183C55.7434 42.7843 55.6778 42.8468 55.6108 42.9071C55.5552 42.9572 55.5533 43.0059 55.5928 43.0687C55.6743 43.1981 55.7533 43.3291 55.8299 43.4618C55.927 43.6297 56.0135 43.8046 56.0955 43.9811C56.1734 44.1493 56.1734 44.1482 56.3355 44.094C56.4138 44.0652 56.4937 44.0414 56.5746 44.0224C56.8383 43.9685 57.0883 44.1041 57.2008 44.3653C57.269 44.5263 57.32 44.695 57.3528 44.8682C57.4013 45.115 57.2595 45.3888 57.0329 45.5104C56.945 45.5571 56.8486 45.5775 56.7568 45.6124C56.6458 45.6548 56.6361 45.6632 56.6543 45.7786C56.7129 46.1421 56.7542 46.5074 56.7568 46.8767C56.7576 46.9573 56.7861 47.0033 56.8656 47.0103C56.9335 47.0162 57.0009 47.0296 57.0688 47.0371C57.3386 47.0668 57.5222 47.2097 57.6022 47.4915C57.6091 47.516 57.6268 48.024 57.6032 48.1616C57.5514 48.4656 57.3287 48.6822 57.0358 48.6945C56.9726 48.6976 56.9093 48.6933 56.847 48.6818C56.7315 48.6595 56.655 48.7111 56.6272 48.8295C56.5585 49.1209 56.466 49.4039 56.3668 49.6847C56.3375 49.7659 56.3544 49.8371 56.418 49.8942C56.4512 49.9241 56.5791 50.0706 56.5998 50.1193C56.6473 50.2312 56.442 50.057 56.3947 50.028C56.286 49.9616 54.9559 49.1807 54.4607 48.9005C54.4962 48.6222 54.6241 48.2661 54.6757 47.9916C54.9382 46.5931 54.6666 45.3174 53.9066 44.1527C53.2744 43.1841 52.4089 42.5645 51.3459 42.2571C50.4103 41.9865 49.4831 42.0415 48.5732 42.3948C47.8206 42.6871 46.9965 43.1663 46.5444 43.9208C46.4925 43.9822 46.468 43.9752 46.3861 43.9364C46.1032 43.7864 44.9943 43.0186 44.5435 42.7396C44.3436 42.5263 44.2115 42.1774 44.3615 41.9198C44.4686 41.736 44.6125 41.5871 44.7669 41.4532C44.9839 41.2653 45.2984 41.2706 45.5287 41.4473C45.8146 41.6664 45.8143 41.6654 46.0921 41.43C46.237 41.3069 46.3915 41.1978 46.5438 41.0854C46.6854 40.9809 46.696 40.9388 46.6295 40.7748C46.4484 40.3279 46.5646 39.9882 46.9729 39.7672C47.0808 39.7062 47.1936 39.6554 47.3099 39.6154C47.6215 39.5145 47.9088 39.6327 48.0782 39.928C48.2549 40.236 48.254 40.2355 48.5866 40.1542C48.7624 40.111 48.9407 40.0804 49.1181 40.046C49.2955 40.0116 49.3225 39.9818 49.3326 39.7951C49.3366 39.7018 49.35 39.6092 49.3723 39.5188C49.4192 39.3384 49.5042 39.18 49.68 39.109C50.0153 38.9731 50.3539 38.9471 50.683 39.1256C50.8771 39.231 50.9676 39.4121 50.9701 39.6468C50.9738 39.9985 50.9761 40.0014 51.2992 40.0571C51.5115 40.0937 51.7195 40.1482 51.9283 40.2006C52.0867 40.2403 52.1276 40.2247 52.1894 40.0624C52.3456 39.6516 52.734 39.442 53.1921 39.6812C53.3221 39.7491 53.4583 39.7987 53.5719 39.9081C53.8009 40.1288 53.817 40.4546 53.7228 40.6923C53.7094 40.7258 53.6935 40.7577 53.6804 40.7914C53.6177 40.9564 53.611 41.053 53.611 41.053C53.611 41.053 53.9315 41.279 54.0735 41.3929Z" fill="#5F5F5F"/>
<path d="M54.3868 48.7655C54.52 48.901 56.2994 49.9359 56.4526 50.0337C56.4983 50.0399 56.5335 50.072 56.5747 50.0898L56.5725 50.0882C56.6042 50.1186 56.6346 50.1508 56.6633 50.1845L56.6617 50.1823C56.8026 50.3921 56.8017 50.6157 56.7203 50.8473C56.6685 50.9703 56.6063 51.088 56.5344 51.199C56.3669 51.4672 56.0578 51.5513 55.786 51.4058C55.7034 51.3615 55.6232 51.3123 55.5447 51.2593C55.4877 51.2214 55.4484 51.2316 55.4084 51.2878C55.1906 51.594 54.9486 51.8798 54.685 52.1421C54.6318 52.1948 54.6255 52.2409 54.6703 52.302C54.7217 52.371 54.7696 52.4432 54.8158 52.5163C55.0036 52.8124 54.9531 53.154 54.6875 53.3734C54.595 53.4496 54.5007 53.5236 54.4026 53.5915C54.1389 53.7736 53.8298 53.7223 53.6289 53.4647C53.5734 53.3924 53.5213 53.3172 53.473 53.2392C53.4303 53.1709 53.3873 53.1554 53.3157 53.1988C53.0142 53.3813 52.6958 53.5253 52.3707 53.6528C52.2525 53.6995 52.2535 53.7013 52.2766 53.8326C52.2848 53.8784 52.2913 53.9247 52.2996 53.9704C52.3752 54.3556 52.2889 54.5643 51.972 54.7619C51.8901 54.8102 51.7962 54.8027 51.7083 54.8273C51.5554 54.8663 51.4006 54.8632 51.2448 54.8549H51.244C51.193 54.8281 51.1429 54.7993 51.093 54.7701C50.9431 54.6372 50.8761 54.4622 50.8373 54.2615C50.7846 53.9897 50.8167 54.0338 50.5812 54.0455C50.2693 54.0611 49.9568 54.0597 49.645 54.0413C49.524 54.0341 49.5237 54.0336 49.4959 54.1529C49.483 54.2083 49.4683 54.2635 49.4604 54.3199C49.4099 54.6758 49.1401 54.9433 48.7103 54.8561C48.6051 54.8346 48.5009 54.8058 48.3981 54.7736C48.1042 54.6818 47.9342 54.3804 47.9931 54.0601C48.0078 53.9788 48.0256 53.8979 48.0406 53.8164C48.0608 53.7056 48.0595 53.6998 47.9549 53.6581C47.7539 53.5778 47.5537 53.4957 47.3603 53.3966C47.2461 53.338 47.1331 53.2768 47.0204 53.2149C46.9032 53.1508 46.904 53.1499 46.8221 53.2666C46.7781 53.329 46.7371 53.3935 46.6915 53.4536C46.4911 53.7207 46.1749 53.7768 45.9078 53.59C45.806 53.5188 45.7068 53.4426 45.6113 53.3622C45.3675 53.1564 45.3151 52.8188 45.4825 52.5398C45.5323 52.4569 45.5877 52.3776 45.6437 52.2992C45.6825 52.2448 45.685 52.2013 45.635 52.1513C45.3679 51.8852 45.1228 51.5952 44.9025 51.2844C44.8607 51.2252 44.8196 51.2255 44.7654 51.2616C44.6993 51.3057 44.6309 51.3461 44.5623 51.3863C44.2546 51.5644 43.9341 51.4765 43.7534 51.1563C43.6888 51.0416 43.6097 50.9364 43.5653 50.8077C43.4551 50.489 43.548 50.1937 43.8231 50.016C43.8817 49.9783 43.9415 49.9434 43.999 49.9056C44.1005 49.8395 44.1031 49.8376 44.0583 49.7221C43.9652 49.4824 43.8852 49.2372 43.8186 48.9877C43.7893 48.8786 43.7615 48.7676 43.7371 48.6567C43.7196 48.5757 43.6797 48.5443 43.6013 48.5618C43.5389 48.574 43.476 48.5828 43.4128 48.5883C43.0406 48.63 42.7648 48.393 42.7259 47.9983C42.7152 47.8892 42.7038 47.7815 42.6966 47.6729C42.6866 47.5157 42.7338 47.3605 42.8283 47.2392C42.9228 47.1179 43.0575 47.0399 43.2046 47.0212C43.2868 47.0104 43.3695 47.0036 43.4513 46.99C43.558 46.9713 43.5615 46.969 43.5631 46.8506C43.5679 46.5913 43.5865 46.3325 43.6188 46.0754C43.6322 45.9624 43.6678 45.8526 43.6601 45.7368C43.652 45.6576 43.6204 45.6085 43.5606 45.5838C43.5196 45.5711 43.5099 45.5657 43.4488 45.5495C43.3284 45.5183 43.2191 45.4628 43.1319 45.369" fill="#414141"/>
<path d="M43.6658 45.8072C43.6796 45.7279 43.6475 45.6085 43.5709 45.5858C43.5051 45.5661 43.3999 45.5242 43.3346 45.5033C43.0748 45.42 42.9119 45.202 42.8833 44.9091C42.8504 44.7845 42.9537 44.3812 43.0005 44.2504C43.1054 43.9623 43.3626 43.7943 43.6524 43.8409C43.7149 43.8506 43.7764 43.8675 43.8355 43.8914C43.9449 43.9366 44.0292 43.901 44.0775 43.7904C44.1968 43.518 44.3752 43.2481 44.49 42.974C44.601 42.7091 44.5223 42.731 44.5612 42.7402C44.6561 42.8272 46.0416 43.5437 46.4784 43.9183C46.1939 44.2456 45.5618 45.7276 45.5355 46.2233" fill="#414141"/>
<path d="M46.4943 43.8949C47.3787 42.8781 48.0117 42.4416 48.8847 42.1777C49.416 42.0159 49.9704 41.9571 50.5212 42.0041C51.4482 42.0835 52.2854 42.4277 53.0225 43.0362C53.6725 43.5731 54.1459 44.2532 54.4688 45.0551C54.6664 45.5457 54.7708 46.0584 54.8195 46.5899C54.8894 47.3509 54.7362 48.2011 54.4906 48.9105C54.441 48.9572 53.5364 48.2987 53.4396 48.1704C53.4174 48.1012 53.4448 48.0378 53.4614 47.9736C53.5503 47.627 53.6079 47.275 53.5977 46.9148C53.549 45.184 52.4402 43.7564 50.9068 43.4076C49.7752 43.1502 48.5753 43.4099 47.4769 44.5972C47.4492 44.6138 47.4406 44.5781 47.2541 44.4414C46.941 44.2388 46.7868 44.1118 46.5729 43.9739C46.4503 43.8979 46.4565 43.9388 46.4943 43.8949Z" fill="#414141"/>
<path d="M54.5087 48.8605C54.4793 48.9104 54.4527 48.9621 54.429 49.0154C54.1593 49.7068 53.7273 50.2744 53.2011 50.7551C52.5125 51.3846 51.7138 51.7771 50.807 51.9032C50.5849 51.9343 50.3622 51.9682 50.1376 51.9607C49.4884 51.9387 48.8609 51.8115 48.2614 51.5338C47.8811 51.3566 47.5252 51.1254 47.2032 50.8466C46.702 50.4154 46.2948 49.8973 45.9958 49.2833C45.7211 48.7176 45.563 48.1194 45.4959 47.4889C45.4373 46.9462 45.4833 46.4136 45.5901 45.8824C45.7123 45.2763 45.9403 44.7178 46.2585 44.2003C46.3038 44.1267 46.4355 43.9597 46.4782 43.9178C46.7094 44.0456 47.3406 44.4887 47.4418 44.585C47.5056 44.6737 47.3878 44.7904 47.3513 44.8473C47.1573 45.1489 46.9975 45.4672 46.8948 45.8171C46.5367 47.0359 46.7008 48.1702 47.4222 49.1899C48.0241 50.0408 48.8426 50.5072 49.8434 50.6141C51.2693 50.7664 52.7326 49.9054 53.3348 48.3857C53.368 48.3018 53.3597 48.1694 53.495 48.1628C53.5821 48.2691 54.4065 48.8008 54.5087 48.8605Z" fill="#5F5F5F"/>
<path d="M53.495 48.163C53.3815 48.4726 53.2546 48.7745 53.0766 49.05C52.5128 49.9227 51.7434 50.4642 50.7637 50.6507C49.7713 50.8396 48.863 50.604 48.0554 49.9691C47.345 49.4104 46.8918 48.6588 46.7168 47.7385C46.51 46.6506 46.7272 45.6495 47.3328 44.7447C47.3554 44.7109 47.3768 44.6768 47.3995 44.6428C47.4224 44.6138 47.7234 44.2604 47.8699 44.1298C48.5191 43.5513 49.2618 43.2548 50.1108 43.2376C51.7013 43.2055 53.1361 44.3508 53.5498 46.0148C53.7154 46.6808 53.711 47.3484 53.5309 48.0126C53.5175 48.0618 53.5069 48.1128 53.495 48.163Z" fill="#EDAE50"/>
<path d="M51.0973 46.9744C51.1241 47.544 50.6326 47.9849 50.1662 47.979C49.6341 47.9723 49.1974 47.5283 49.2022 46.9649C49.2067 46.4144 49.6114 45.959 50.1728 45.9575C50.6406 45.9561 51.1233 46.4013 51.0973 46.9744Z" fill="#414141"/>
<path d="M51.1509 45.0816C51.259 45.0699 51.3491 45.1106 51.4239 45.196C51.4902 45.2716 51.5614 45.3426 51.6261 45.4198C51.7764 45.5985 51.6847 45.9256 51.4902 45.99C51.4053 46.018 51.3274 46.0199 51.2527 45.9677C51.0925 45.8558 50.956 45.7143 50.8348 45.5591C50.7061 45.3942 50.7715 45.1831 50.9629 45.1115C51.023 45.0881 51.0869 45.0779 51.1509 45.0816V45.0816Z" fill="#FF9400"/>
<path d="M25.6182 54.7969C25.3545 54.6493 25.1981 54.4199 25.151 54.105C25.1349 53.9976 25.1071 53.8926 25.0864 53.7857C25.0718 53.7109 25.0363 53.6859 24.9629 53.6922C24.4962 53.734 24.0273 53.7392 23.5599 53.7077C23.4966 53.7037 23.4332 53.7 23.3704 53.6922C23.3104 53.685 23.2792 53.7113 23.2669 53.7727C23.2446 53.8843 23.2148 53.9943 23.1975 54.1068C23.144 54.4539 22.9653 54.6925 22.6609 54.8268C22.4662 54.8831 22.2717 54.8634 22.0771 54.8251C21.8969 54.7894 21.7119 54.7727 21.5485 54.672C21.4858 54.623 21.4184 54.5806 21.364 54.5196C21.1699 54.3015 21.0896 54.0468 21.1397 53.7497C21.1586 53.6375 21.1837 53.5267 21.2049 53.4148C21.2408 53.2237 21.2405 53.2226 21.0731 53.1597C20.6918 53.0155 20.3198 52.8448 19.9596 52.6485C19.8729 52.6018 19.785 52.555 19.702 52.5016C19.6387 52.4601 19.5967 52.4689 19.5555 52.5327C19.4924 52.6311 19.4224 52.7244 19.3596 52.8234C19.0926 53.2452 18.5685 53.3688 18.1565 53.0308C18.0485 52.9421 17.9345 52.8617 17.8263 52.7737C17.444 52.4629 17.3743 51.9678 17.6528 51.5482C17.7258 51.438 17.8003 51.3289 17.8765 51.2209C17.9127 51.1701 17.9121 51.1285 17.8663 51.0868C17.844 51.0667 17.8241 51.0437 17.8028 51.0222C17.4459 50.6613 17.1163 50.2711 16.817 49.8552C16.732 49.7371 16.7313 49.7375 16.6064 49.8139C16.5219 49.8656 16.4378 49.9178 16.3533 49.9697C15.9088 50.2399 15.4672 50.1212 15.1925 49.6581C15.1548 49.5988 15.1406 49.5773 15.1012 49.5061C15.0527 49.4061 14.9941 49.3123 14.9501 49.2088C14.7628 48.7673 14.8933 48.3155 15.2855 48.0662C15.3775 48.0076 15.471 47.9515 15.5639 47.8934C15.6875 47.8155 15.6888 47.8145 15.6357 47.6791C15.4647 47.2435 15.3237 46.7953 15.2137 46.338C15.1955 46.2627 15.1756 46.1878 15.161 46.1117C15.1463 46.0357 15.1047 46.0109 15.0348 46.0204C14.9043 46.038 14.7736 46.0583 14.6423 46.0662C14.3054 46.0869 14.0453 45.9444 13.8693 45.6369C13.7961 45.5104 13.7685 45.3685 13.7562 45.2221C13.7472 45.113 13.7269 45.015 13.72 44.8979C13.6916 44.4558 13.9296 43.9006 14.4526 43.8607C14.5644 43.8523 14.6756 43.8344 14.7871 43.8213C14.916 43.8057 14.9205 43.8046 14.9235 43.6742C14.9319 43.2904 14.9612 42.9075 15.0114 42.5274C15.0319 42.3734 15.0553 42.2197 15.0808 42.0667C15.1053 41.9205 15.1054 41.9174 14.9685 41.8697C14.8659 41.8342 14.7633 41.8007 14.6624 41.7642C14.2237 41.6068 13.9972 41.1626 14.1203 40.6898C14.1657 40.5151 14.2215 40.343 14.2815 40.1732C14.4352 39.7354 14.8559 39.5146 15.2777 39.6471C15.404 39.6867 15.5306 39.7262 15.6534 39.7761C15.7319 39.8073 15.7668 39.7812 15.7999 39.7075C15.8777 39.5344 15.9622 39.3647 16.0441 39.1941C16.0734 39.1352 16.1004 39.0881 16.1269 39.034C16.2148 38.8626 16.3081 38.6935 16.4199 38.5374C16.5206 38.4439 33.4562 49.0371 33.4085 49.1592C33.3759 49.2216 33.3499 49.2819 33.3187 49.342C33.2589 49.4549 33.2025 49.5697 33.1389 49.68C32.8973 50.0981 32.4575 50.2255 32.0469 49.9975C31.9391 49.9375 31.8355 49.8686 31.7296 49.8044C31.6194 49.7377 31.6181 49.7371 31.5432 49.8399C31.3761 50.0696 31.2013 50.2925 31.0187 50.5085C30.8554 50.7014 30.6827 50.8842 30.5068 51.0638C30.426 51.1464 30.4261 51.1489 30.4884 51.2429C30.5586 51.3489 30.6327 51.4517 30.7023 51.5582C30.9722 51.9711 30.8998 52.4679 30.5249 52.7718C30.4047 52.8694 30.2826 52.964 30.1586 53.0557C29.769 53.3429 29.3062 53.2644 29.0182 52.8627C28.9449 52.7596 28.8753 52.6526 28.8021 52.549C28.7358 52.4555 28.7333 52.4541 28.6363 52.5102C28.2386 52.7418 27.8257 52.9427 27.4008 53.1115C27.3414 53.1349 27.2814 53.1569 27.2222 53.1809C27.1151 53.2243 27.1131 53.2259 27.1343 53.3523C27.1532 53.4645 27.1691 53.5782 27.1994 53.6872C27.3125 54.0945 27.0763 54.5865 26.552 54.7596C26.3253 54.8346 25.8344 54.889 25.6182 54.7969Z" fill="#414141"/>
<path d="M33.3766 49.1897C33.0208 48.9701 29.8551 46.8954 29.6334 46.7653C29.5131 46.7007 29.5522 46.6929 29.6252 46.5472C29.8841 45.9588 30.0584 45.3323 30.1421 44.6888C30.2024 44.2201 30.1992 43.7493 30.1629 43.2773C30.1288 42.8325 30.0503 42.3928 29.9285 41.9658C29.7733 41.4216 29.5488 40.9123 29.2716 40.4256C28.9624 39.8829 28.5684 39.4194 28.1331 38.992C27.7985 38.6633 27.4202 38.3965 27.0208 38.1646C26.4208 37.814 25.7678 37.5773 25.0913 37.4654C24.6664 37.3953 24.2376 37.3607 23.8087 37.3906C22.8961 37.4545 22.0322 37.7097 21.2286 38.1796C20.5946 38.5598 20.0272 39.0537 19.5515 39.6394C19.4301 39.7889 19.2574 40.0864 19.1386 40.2372C19.0703 40.3239 17.9343 39.54 16.3889 38.5676C16.4459 38.4609 16.5008 38.3736 16.5618 38.2804C16.5997 38.2221 16.5966 38.178 16.5471 38.1319C16.4523 38.0424 16.3578 37.9525 16.2648 37.8609C15.9688 37.5689 15.8997 37.1816 16.085 36.8012C16.1274 36.7141 16.2038 36.5093 16.3205 36.3605C16.3769 36.2885 16.439 36.2229 16.4999 36.1558C16.7982 35.8276 17.3781 35.8221 17.6895 36.1246C18.0663 36.4902 18.0168 36.4051 18.3341 36.1462C18.6053 35.9254 18.8797 35.7099 19.1666 35.512C19.321 35.4056 19.331 35.3541 19.2529 35.1759C19.1658 34.977 19.0875 34.7771 19.1043 34.5499C19.1251 34.2694 19.2322 34.0294 19.4477 33.8735C19.7554 33.6513 20.0821 33.4684 20.4746 33.4797C20.7988 33.4894 21.0259 33.6608 21.1906 33.9416C21.2492 34.0426 21.2948 34.153 21.3422 34.2611C21.3862 34.3624 21.4574 34.3954 21.5572 34.3675C21.9775 34.2505 22.4033 34.1618 22.8318 34.0881C22.9875 34.0613 23.0189 34.0127 23.0249 33.8481C23.0278 33.791 23.0278 33.7338 23.0249 33.6767C22.9917 33.1537 23.3726 32.7148 23.8228 32.6844C24.071 32.6675 24.3196 32.6476 24.566 32.6999C24.9284 32.7779 25.285 33.1308 25.2491 33.6155C25.2441 33.6825 25.2478 33.7503 25.2491 33.8181C25.2523 34.0172 25.2875 34.066 25.4725 34.0942C25.8735 34.1539 26.2705 34.2401 26.6614 34.3523C26.8683 34.4124 26.9004 34.3906 26.9865 34.1849C27.0541 34.0238 27.1218 33.8623 27.241 33.733C27.4822 33.4724 27.7824 33.4304 28.095 33.5039C28.3426 33.5622 28.5753 33.6817 28.7885 33.8294C29.1358 34.0704 29.2624 34.5031 29.121 34.924C29.0917 35.0118 29.0563 35.0975 29.0194 35.1822C28.9461 35.3485 28.9586 35.4093 29.1042 35.5073C29.4101 35.7112 29.7047 35.9338 29.9865 36.1738C30.2952 36.4387 30.2401 36.479 30.5807 36.1511C30.879 35.8639 31.3396 35.8296 31.6117 36.0264C31.8874 36.2254 32.1273 36.4763 32.2865 36.79C32.4282 37.0696 32.4092 37.5835 32.127 37.8417C32.0423 37.9197 31.9673 38.0091 31.8886 38.0943C31.8205 38.1684 31.8113 38.2492 31.8652 38.3337C32.1174 38.7287 32.3431 39.1421 32.5407 39.5709C32.5892 39.6761 32.6726 39.7029 32.7751 39.6684C32.8959 39.627 33.0191 39.5942 33.1439 39.5703C33.4777 39.5079 33.8452 39.6638 34.0167 39.9754C34.1831 40.2773 34.2854 40.6086 34.2958 40.963C34.307 41.3525 34.1246 41.6221 33.8123 41.8015C33.7085 41.8597 33.5992 41.9058 33.4862 41.939C33.3667 41.9751 33.3156 42.0524 33.3396 42.1821C33.4239 42.6466 33.4519 43.1171 33.4796 43.5882C33.4869 43.7128 33.5436 43.7817 33.6614 43.7853C33.7493 43.7881 33.8359 43.8055 33.9228 43.8177C34.3706 43.88 34.677 44.2506 34.6786 44.7326C34.6793 44.8259 34.6752 44.9192 34.6661 45.012C34.6515 45.1585 34.6023 45.3684 34.5636 45.5054C34.4514 45.9045 34.0728 46.123 33.6823 46.0966C33.5559 46.0882 33.4302 46.0666 33.3039 46.0533C33.1879 46.0412 33.182 46.0427 33.1531 46.1652C33.0664 46.5327 32.9719 46.8976 32.8478 47.2532C32.7901 47.4186 32.7306 47.5833 32.6653 47.7454C32.636 47.8172 32.6483 47.8613 32.711 47.8989C32.8342 47.9729 32.9584 48.0455 33.0772 48.1273C33.3943 48.3455 33.5253 48.7424 33.4098 49.1212C33.4005 49.145 33.3893 49.1678 33.3766 49.1897V49.1897Z" fill="#666059"/>
<path d="M20.4633 40.9993C20.6098 40.8123 20.7488 40.6181 20.9092 40.4428C21.666 39.6158 22.5803 39.1302 23.66 39.001C24.6148 38.8866 25.5206 39.0633 26.3574 39.564C27.6455 40.3349 28.4138 41.5101 28.6561 43.0588C28.7969 43.9586 28.6902 44.8369 28.3543 45.6801C28.3354 45.7278 28.3219 45.7778 28.306 45.8267C28.3424 45.9079 28.307 45.9776 28.275 46.048C28.1121 46.4065 27.8978 46.7279 27.6497 47.0222C26.9364 47.8683 26.0633 48.4292 25.0038 48.6232C23.5973 48.8807 22.3283 48.5345 21.2251 47.5673C20.3304 46.7826 19.7912 45.7667 19.6176 44.5487C19.4825 43.6006 19.5949 42.677 19.9643 41.7947C20.0538 41.5807 20.1625 41.3786 20.2719 41.1758C20.3166 41.0914 20.3749 41.0283 20.4633 40.9993Z" fill="#EDAE50"/>
<path d="M21.2799 43.7929C21.2557 42.0457 22.6609 40.7142 24.1514 40.7061C25.6133 40.6982 27.0723 41.9363 27.0748 43.8085C27.0772 45.5464 25.751 46.8672 24.2032 46.8842C22.5168 46.9028 21.2489 45.4228 21.2799 43.7929Z" fill="#45423D"/>
<path d="M27.023 40.9426C27.0472 41.2003 26.7436 41.4024 26.5326 41.2534C26.3895 41.1525 26.2542 41.0496 26.1408 40.915C25.9775 40.7214 26.0147 40.5207 26.2311 40.3942C26.3914 40.3007 26.5408 40.294 26.6888 40.4281C26.793 40.5224 26.8939 40.6176 26.9686 40.7406C27.0065 40.8 27.0255 40.8708 27.023 40.9426Z" fill="#FF9400"/>
<path d="M21.8633 43.814C21.8274 42.5517 22.7891 41.3206 24.1849 41.3261C25.4888 41.3317 26.5066 42.4439 26.4936 43.835C26.4808 45.2064 25.4117 46.2817 24.1412 46.265C22.8238 46.2477 21.8277 45.0685 21.8633 43.814Z" fill="#EDAE50"/>
<path d="M24.1702 44.8031C23.6508 44.8031 23.2179 44.3437 23.2217 43.7902C23.2251 43.2447 23.6224 42.7883 24.1762 42.7822C24.6814 42.7768 25.1225 43.2209 25.1197 43.7987C25.1171 44.3618 24.701 44.8037 24.1702 44.8031Z" fill="#414141"/>
<path d="M25.267 42.1224C25.3215 42.1224 25.3748 42.1288 25.4211 42.1614C25.6226 42.3035 25.7304 42.5011 25.7232 42.7609C25.7194 42.8944 25.5393 43.0348 25.4166 43.0052C25.209 42.955 25.0397 42.8456 24.9241 42.649C24.8242 42.4788 24.844 42.3364 24.9937 42.2161C25.0748 42.1515 25.1673 42.1252 25.267 42.1224Z" fill="#FF9400"/>
<path d="M20.4634 40.9993C20.3122 41.2537 20.1659 41.5104 20.049 41.7858C19.8526 42.2504 19.725 42.7445 19.6708 43.2506C19.5989 43.8888 19.6485 44.5359 19.8168 45.1533C19.985 45.7707 20.2683 46.3458 20.6499 46.8442C21.2301 47.6017 21.9612 48.1236 22.837 48.4147C23.3447 48.5835 23.8674 48.6609 24.3969 48.6237C25.782 48.5263 26.9116 47.899 27.7749 46.7381C27.9561 46.4932 28.1124 46.2286 28.2412 45.9488C28.2605 45.9071 28.2844 45.8679 28.3061 45.8275C28.4265 45.8875 29.3635 46.5311 29.5232 46.65C29.5866 46.6968 29.5579 46.7591 29.5277 46.8161C29.3632 47.1287 29.1893 47.4351 28.9799 47.7167C28.5224 48.3326 27.9886 48.8576 27.3573 49.2691C26.7446 49.6689 26.0715 49.9528 25.3677 50.1085C24.8233 50.2306 24.2718 50.2487 23.722 50.2123C22.9906 50.1644 22.2897 49.9674 21.6225 49.6382C21.1654 49.4153 20.737 49.131 20.3478 48.7924C19.5823 48.1214 18.9885 47.3109 18.6044 46.332C18.3589 45.7036 18.2053 45.0389 18.1492 44.3611C18.0613 43.3502 18.2119 42.3772 18.5465 41.4314C18.6691 41.0851 18.8309 40.7602 19.0038 40.4407C19.0207 40.4096 19.0398 40.3784 19.0594 40.3493C19.1645 40.1905 19.1844 40.1855 19.3406 40.2802C19.6028 40.4393 20.1073 40.7721 20.3641 40.9388C20.3984 40.9566 20.4316 40.9768 20.4634 40.9993V40.9993Z" fill="#666059"/>
<path d="M28.6065 44.8218C28.739 44.1947 28.7513 43.5456 28.6429 42.9132C28.5345 42.2809 28.3075 41.6782 27.9755 41.1412C27.4205 40.3799 26.7233 39.7387 25.9495 39.3427C25.4666 39.1214 24.949 38.9981 24.4235 38.9791C23.0362 38.9266 21.8468 39.4155 20.8779 40.4779C20.7256 40.6481 20.5825 40.8274 20.4494 41.0149C20.3354 40.9423 19.286 40.3729 19.1384 40.2373C19.0798 40.1834 19.5374 39.6319 19.7725 39.3743C20.2865 38.8111 20.8674 38.3458 21.5349 38.005C22.1596 37.6622 22.8737 37.4663 23.5942 37.3848C24.1467 37.3213 24.7047 37.337 25.2532 37.4315C25.9762 37.5582 26.6428 37.8574 27.275 38.2574C27.7085 38.5285 28.1076 38.8575 28.4626 39.2364C29.1602 39.9866 29.6735 40.8571 29.9627 41.8723C30.147 42.5241 30.2363 43.2021 30.2275 43.8826C30.218 44.8977 29.9784 45.8306 29.6305 46.5817C29.5614 46.7307 29.624 46.7269 29.424 46.5817C29.1783 46.3947 28.5653 46.0042 28.3066 45.8276C28.2905 45.8145 28.5017 45.3219 28.6065 44.8218Z" fill="#45423D"/>
<path d="M22.1654 18.3626C22.0588 18.0016 21.9769 17.6336 21.8871 17.2678C21.8633 17.1715 21.89 17.1456 21.9865 17.1207C27.329 15.7388 33.8259 16.7947 37.1626 17.8698C37.6914 18.0716 38.2061 18.3062 38.6822 18.627C38.8888 18.7663 39.0848 18.9198 39.239 19.1257C39.2819 19.1821 39.3206 19.242 39.3546 19.3049C39.4353 19.4578 39.4533 19.6119 39.3774 19.7791C39.2016 20.167 39.0104 20.5462 38.8038 20.9167C38.6704 21.1579 38.5331 21.3968 38.3977 21.637C38.334 21.7535 38.2625 21.865 38.1837 21.9706C38.1147 22.039 38.0371 22.0061 37.9627 21.9884C37.636 21.9105 37.3059 21.8495 36.9811 21.7644C36.9572 21.7582 36.9329 21.7688 36.9087 21.7697C36.5685 21.6526 36.2093 21.6392 35.8638 21.5516C35.8185 21.54 35.7791 21.5692 35.7358 21.5614C35.1683 21.4441 34.593 21.3848 34.0216 21.3013C33.8206 21.2719 33.6133 21.2874 33.4184 21.2111C33.344 21.1274 33.3305 21.018 33.3055 20.9125C33.1614 20.2901 32.9743 19.6861 32.6315 19.1497C32.5794 19.0682 32.5227 18.9904 32.4632 18.9147C32.2849 18.687 32.072 18.5516 31.7829 18.5112C31.029 18.4057 30.2739 18.3146 29.5166 18.2463C28.2566 18.1321 26.9951 18.1126 25.7328 18.1316C25.1098 18.1408 24.4875 18.1849 23.8657 18.2419C23.3508 18.2887 22.8372 18.3442 22.325 18.4163C22.2615 18.4229 22.2067 18.4188 22.1654 18.3626Z" fill="#EDAE50"/>
<path d="M39.8809 29.2289C39.526 29.2263 39.1712 29.2185 38.8165 29.2238C38.7033 29.2253 38.6783 29.1554 38.6537 29.0689C38.5576 29.0377 38.5602 28.9442 38.5454 28.8663C38.4307 28.2665 38.3227 27.665 38.1979 27.0673C37.8909 25.598 37.5461 24.139 37.1265 22.7008C37.0542 22.4531 36.9764 22.2071 36.9058 21.9587C36.8843 21.8832 36.8432 21.8007 36.9127 21.725C36.9383 21.6938 36.9726 21.6938 37.0063 21.7002C37.4012 21.7781 37.7957 21.856 38.1835 21.9686C38.4382 22.7309 38.6524 23.5065 38.85 24.2874C39.1186 25.3486 39.349 26.4197 39.5639 27.4945C39.6439 27.8959 39.88 29.2189 39.8809 29.2289Z" fill="#45423D"/>
<path d="M22.1656 18.3625C22.6322 18.2778 23.1032 18.2285 23.574 18.1836C23.9134 18.1512 24.2547 18.1305 24.595 18.1057C25.5406 18.0359 26.487 18.0373 27.4332 18.0543C28.1205 18.0666 28.8072 18.1054 29.4933 18.1634C29.9502 18.202 30.4065 18.2464 30.8617 18.3018C31.2441 18.3485 31.6235 18.416 32.0061 18.469C32.1297 18.486 32.2229 18.5505 32.3112 18.6363C32.6158 18.9324 32.8309 19.2946 32.9998 19.6898C33.2008 20.1595 33.3389 20.6507 33.4304 21.157C33.4092 21.228 33.3547 21.229 33.2996 21.2254C33.0565 21.2098 32.813 21.1916 32.5709 21.1676C32.3572 21.1465 32.1428 21.1364 31.9294 21.1236C31.5894 21.1037 31.2489 21.0644 30.9071 21.0845C30.7752 21.0925 30.6453 21.0571 30.5137 21.0549C30.3356 21.0521 30.2802 21.0931 30.2183 21.2687C29.8541 22.3045 29.5542 23.3617 29.2906 24.4311C28.8833 26.0829 28.5727 27.7564 28.3115 29.4405C28.2415 29.8906 28.1845 30.3428 28.1221 30.7943C28.1093 30.8861 28.1 30.9802 28.045 31.0592C28.0021 31.105 27.9474 31.1081 27.895 31.0936C27.65 31.0263 27.4068 30.9512 27.1624 30.882C27.1433 30.8774 27.1256 30.8679 27.1107 30.8543C27.0958 30.8408 27.0843 30.8235 27.0772 30.8041C27.0378 30.6914 27.0625 30.5769 27.0783 30.4659C27.3274 28.6442 27.6323 26.8339 28.0333 25.0429C28.3169 23.7763 28.6401 22.5224 29.0542 21.2961C29.1169 21.1107 29.0817 21.0568 28.8986 21.0546C28.1728 21.046 27.4481 21.0728 26.7226 21.1098C26.3581 21.1285 25.9937 21.1444 25.6301 21.1768C25.6058 21.1768 25.5813 21.1777 25.5568 21.1779C25.1772 21.1805 25.1684 21.1894 25.0487 21.5651C24.3521 23.7496 23.8651 25.989 23.4889 28.2581C23.3763 28.9367 23.2777 29.6176 23.1775 30.2983C23.1684 30.3606 23.162 30.422 23.1251 30.4742C23.0899 30.5345 23.0319 30.5426 22.9736 30.5521C22.6709 30.5989 22.3664 30.6314 22.0652 30.6883C21.9974 30.7013 21.914 30.7167 21.9004 30.6004C21.9509 30.2417 22.0015 29.883 22.0522 29.5242C22.1834 28.5911 22.3321 27.6613 22.4982 26.7348C22.7159 25.5208 22.9649 24.3164 23.2726 23.1264C23.4191 22.562 23.5705 21.9988 23.7546 21.4465C23.8191 21.253 23.8188 21.253 23.6795 21.1193C23.3434 20.7956 23.0084 20.4707 22.6706 20.149C22.6085 20.0911 22.565 20.0139 22.5462 19.9284C22.4318 19.4567 22.3118 18.9865 22.1937 18.5157C22.1733 18.4676 22.1637 18.4151 22.1659 18.3624L22.1656 18.3625Z" fill="#45423D"/>
<path d="M22.166 18.3618C22.1839 18.4112 22.2042 18.46 22.1938 18.5151C22.1645 18.4686 22.1273 18.4227 22.166 18.3618Z" fill="#A9A9A9"/>
<path d="M29.9227 31.9071C29.3613 31.5864 28.7727 31.3336 28.1707 31.1147C28.1159 31.0947 28.0584 31.0799 28.0166 31.0321C28.0786 30.5753 28.1359 30.1178 28.2033 29.662C28.3595 28.6067 28.542 27.5566 28.7508 26.5118C29.0687 24.9282 29.449 23.3627 29.9491 21.8321C30.0291 21.5871 30.112 21.3432 30.1952 21.0996C30.2373 20.9764 30.2392 20.9759 30.3632 20.9796C31.0557 21.0005 31.7479 21.0287 32.4393 21.0748C32.77 21.0968 33.1001 21.1292 33.4304 21.157C33.9763 21.2128 34.5203 21.2843 35.0633 21.3661C35.294 21.401 35.5248 21.4331 35.7539 21.4785C35.8858 21.5344 35.9674 21.6416 36.047 21.7647C36.3493 22.2333 36.5904 22.7393 36.7908 23.2607C37.0006 23.8062 37.1925 24.3625 37.322 24.9389C37.373 25.1658 37.4454 25.387 37.4978 25.6131C37.6693 26.3572 37.8593 27.0965 37.9979 27.8492C38.0689 28.2352 38.1444 28.6209 38.238 29.0023C38.2629 29.1038 38.3042 29.2186 38.1813 29.2917C38.1681 29.3073 38.1573 29.3268 38.1412 29.336C37.9237 29.4583 37.7768 29.6575 37.6341 29.8605C37.3956 30.1995 37.1594 30.5403 36.9223 30.8805C36.8555 30.9116 36.8005 30.8858 36.7458 30.8442C36.4603 30.6266 36.1722 30.4129 35.8814 30.2029C35.7336 30.0958 35.7221 30.0422 35.8213 29.8842C35.9621 29.6598 36.1135 29.4432 36.2587 29.2221C36.3145 29.137 36.3743 29.0542 36.4198 28.9623C36.502 28.7955 36.4718 28.6293 36.3455 28.5297C36.2192 28.4301 36.0619 28.4504 35.9407 28.5948C35.7879 28.7772 35.6675 28.9861 35.537 29.187C35.1226 29.8221 34.7075 30.4567 34.2916 31.0908C34.2525 31.1504 34.2126 31.2099 34.1861 31.2778C34.1253 31.4321 34.1677 31.5911 34.2909 31.6766C34.4184 31.7651 34.565 31.7477 34.673 31.6162C34.824 31.4323 34.9436 31.2228 35.075 31.024C35.1588 30.8964 35.2423 30.7686 35.3288 30.6431C35.389 30.5559 35.4555 30.5429 35.5422 30.6021C35.8584 30.8183 36.1602 31.0562 36.4686 31.2841C36.5203 31.3223 36.5712 31.3675 36.5691 31.4457C36.4727 31.6129 36.3766 31.7804 36.2795 31.947C36.2307 32.0307 36.1784 32.112 36.1302 32.1963C35.9296 32.5449 35.9234 32.9054 36.0963 33.2632C36.5619 34.2267 37.0457 35.18 37.5916 36.0956C37.6596 36.2096 37.7327 36.3196 37.801 36.4329C37.9933 36.7519 38.2806 36.8798 38.6188 36.8906C38.9449 36.9008 39.2703 36.8628 39.5951 36.8324C39.5878 38.275 39.1996 39.5948 38.473 40.8092C38.3712 40.9792 38.2612 41.0518 38.0628 41.0456C37.5368 41.0289 37.0101 41.0425 36.4837 41.044C36.3773 41.0285 36.3811 40.9284 36.3665 40.8533C36.3041 40.5438 36.222 40.2404 36.1353 39.9379C35.8024 38.7709 35.3198 37.6583 34.701 36.6316C34.501 36.2996 34.2777 35.9861 34.0683 35.6618C33.8736 35.3916 33.6637 35.1343 33.447 34.8847C33.0611 34.4401 32.6605 34.0104 32.222 33.6224C31.5879 33.0645 30.9088 32.5673 30.1924 32.1365C30.0932 32.0731 29.9743 32.0336 29.9227 31.9071Z" fill="#B9E1E1"/>
<path d="M38.1493 29.3279C38.1899 29.2344 38.1864 29.1054 38.1653 29.0173C37.9802 28.2498 36.6735 22.8991 35.9345 21.7216C35.845 21.5788 35.8239 21.541 35.7534 21.4785C36.1005 21.5072 36.4408 21.5851 36.7848 21.6362C36.8112 21.6394 36.8364 21.6492 36.8585 21.6648C36.8806 21.6804 36.8989 21.7013 36.912 21.7258C37.3735 23.2167 37.7695 24.727 38.0999 26.2567C38.3024 27.1889 38.5101 28.1906 38.6754 29.1312C38.6758 29.1334 38.6766 29.1355 38.6777 29.1373C38.711 29.2029 38.7195 29.1848 38.5263 29.2106C38.4064 29.2269 38.2453 29.2838 38.1493 29.3279Z" fill="#DCF9FB"/>
<path d="M27.1109 30.7859C26.8104 30.7235 26.5102 30.6554 26.209 30.6006C25.8496 30.5359 25.4873 30.4912 25.1235 30.4667C24.7792 30.4429 24.4379 30.4356 24.093 30.4348C23.8991 30.4348 23.7028 30.4549 23.5078 30.4396C23.428 30.3745 23.4423 30.2861 23.4539 30.1974C23.6193 28.9286 23.8117 27.6653 24.0624 26.4107C24.2382 25.5271 24.4361 24.6497 24.6798 23.7851C24.9124 22.9592 25.1835 22.1478 25.6035 21.404C25.6668 21.2921 25.6767 21.1995 25.6098 21.0946C25.6561 21.0749 25.7053 21.075 25.7538 21.0727C26.8594 21.0194 27.9648 20.9616 29.072 20.9723C29.1197 20.9723 29.1694 20.9603 29.2158 20.9856C29.2344 21.0415 29.2034 21.0872 29.1874 21.1338C28.6992 22.5519 28.3303 24.008 28.0127 25.4789C27.7433 26.7268 27.5195 27.9841 27.3267 29.2478C27.2491 29.7599 27.183 30.2733 27.1109 30.7859Z" fill="#B9E1E1"/>
<path d="M25.7066 21.0754C25.9045 21.0508 25.8858 21.0623 25.7671 21.278C25.4467 21.8602 25.1768 22.4588 24.9707 23.0904C24.8511 23.4564 24.7352 23.8259 24.6457 24.2035C24.548 24.6155 24.4327 25.0227 24.342 25.4369C24.2502 25.8561 24.1726 26.2785 24.0877 26.6992C24.0006 27.1301 23.9119 27.5605 23.8456 27.9954C23.7431 28.6707 23.644 29.3465 23.5485 30.0227C23.5292 30.1603 23.5046 30.2988 23.5085 30.4397C23.4591 30.4633 23.121 30.5003 23.0952 30.4397C23.1175 30.1083 23.1759 29.7818 23.2241 29.4544C23.3434 28.6453 23.4774 27.8388 23.6262 27.035C23.9732 25.1775 24.4009 23.3417 24.9741 21.5478C25.0102 21.4349 25.053 21.3243 25.0851 21.2102C25.1039 21.1434 25.1412 21.1186 25.2011 21.1167C25.3384 21.1094 25.6823 21.0743 25.7066 21.0754Z" fill="#DCF9FB"/>
<path d="M43.9836 43.9254C43.6427 43.8975 43.2628 43.6121 42.9914 44.3491C42.7217 45.0796 43.1182 45.3611 43.0584 45.3364C43.0289 45.3325 42.9991 45.3315 42.9694 45.3335C42.7462 45.3363 42.5153 45.297 42.2924 45.2967C42.2135 45.2582 42.2321 45.1895 42.2453 45.1229C42.3575 44.5486 42.5295 43.9894 42.758 43.4555C43.0604 42.7555 43.4307 42.0997 43.8945 41.5045C44.5392 40.6777 45.2946 39.9928 46.1729 39.4608C47.0871 38.907 48.0684 38.5645 49.108 38.4152C49.6103 38.3432 50.1168 38.3162 50.6244 38.3541C50.8171 38.3684 50.9675 38.2849 51.0711 38.116C51.1133 38.0472 51.1599 37.9949 51.2323 37.9676C51.3159 37.9667 51.392 38.0044 51.4718 38.0234C51.6476 38.0653 51.666 38.0586 51.743 37.8894C51.8676 37.616 51.9966 37.3454 52.1575 37.0931C52.1971 37.0659 52.2301 37.0292 52.2539 36.986C52.4624 36.6464 52.729 36.3656 53.0424 36.1351C53.0513 36.1307 53.0611 36.129 53.0708 36.1302C53.1842 36.1302 53.2138 36.2223 53.2412 36.3123C53.3612 36.7074 53.4962 37.0957 53.663 37.4721C53.9393 38.0954 54.2807 38.672 54.7188 39.1808C54.7841 39.2567 54.8666 39.3243 54.8284 39.4481C54.6002 39.874 54.372 40.2999 54.1439 40.7259C54.1103 40.7882 54.0733 40.849 54.0378 40.9106C53.9743 41.0178 53.9027 41.1194 53.8238 41.2143C53.8032 41.1985 53.7815 41.1846 53.7587 41.1727C53.7455 41.1658 53.7206 41.1424 53.7079 41.135C53.4689 40.9967 53.5027 40.9875 53.6217 40.7298C53.6964 40.5673 53.7353 40.4025 53.6881 40.2193C53.6695 40.1436 53.6363 40.0729 53.5908 40.0115C53.5452 39.9501 53.4882 39.8994 53.4233 39.8626C53.2705 39.7742 53.112 39.6912 52.9374 39.6522C52.6924 39.5981 52.4365 39.7189 52.3185 39.9545C52.2795 40.0324 52.2523 40.116 52.216 40.1954C52.1641 40.3112 52.1342 40.3274 52.0212 40.2931C51.7206 40.202 51.417 40.1275 51.106 40.0906C51.0767 40.087 51.049 40.075 51.02 40.0722C50.9369 40.0617 50.9019 40.0098 50.9028 39.9246C50.9028 39.8415 50.8975 39.7583 50.9028 39.6753C50.922 39.3613 50.7339 39.149 50.4609 39.0917C50.264 39.0502 50.0612 39.0529 49.8654 39.0998C49.6151 39.1598 49.467 39.3223 49.4321 39.5984C49.4181 39.7009 49.4099 39.8042 49.4075 39.9078C49.4061 40.0426 49.3974 40.0539 49.2694 40.0806C49.1116 40.1135 48.9523 40.1384 48.7944 40.1703C48.6315 40.2034 48.4703 40.2446 48.3109 40.2939C48.2073 40.3262 48.183 40.3132 48.1398 40.2104C48.0999 40.1158 48.0626 40.0201 48.0113 39.9315C47.8761 39.6977 47.6315 39.5897 47.3813 39.6583C47.2015 39.7082 47.0304 39.7886 46.8747 39.8964C46.6477 40.0522 46.5648 40.3464 46.6609 40.624C46.6895 40.7064 46.7315 40.7834 46.7649 40.8641C46.8071 40.9657 46.8035 40.9899 46.7197 41.0444C46.4238 41.237 46.15 41.4619 45.8777 41.6891C45.7981 41.7557 45.7763 41.7564 45.7019 41.6834C45.6356 41.6146 45.5653 41.5503 45.4915 41.4909C45.2821 41.3298 44.9961 41.3277 44.7994 41.5045C44.6621 41.6279 44.5323 41.7622 44.4345 41.9269C44.2864 42.1763 44.3206 42.4723 44.5224 42.6749C44.6041 42.7569 44.6126 42.7631 44.7453 42.8596C44.5413 43.0765 44.1431 43.662 44.0265 43.8926" fill="#414141"/>
<path d="M41.2565 45.2676C40.4368 45.2666 39.617 45.2658 38.7972 45.2649C37.4944 45.2649 36.1915 45.2649 34.8886 45.2649C34.5882 45.2649 34.5831 45.2548 34.6249 44.9413C34.6542 44.7128 34.6594 44.4848 34.5389 44.2769C34.4089 44.0528 34.2253 43.9092 33.9788 43.869C33.8585 43.848 33.7371 43.8348 33.6153 43.8297C33.4688 43.8252 33.4422 43.7864 33.4368 43.6291C33.4192 43.1211 33.3801 42.6162 33.2883 42.1155C33.2518 41.9176 33.2619 41.9009 33.4485 41.8461C33.5996 41.8018 33.7467 41.7468 33.8815 41.6606C34.2164 41.4462 34.3147 41.08 34.2344 40.7035C34.1978 40.5321 34.142 40.3645 34.0879 40.1979C33.9474 39.7657 33.5751 39.5408 33.153 39.6249C33.0084 39.6538 32.87 39.7029 32.7305 39.7496C32.6161 39.7886 32.6017 39.7847 32.5485 39.6664C32.3268 39.1692 32.0653 38.6931 31.7669 38.2436C31.7108 38.1598 31.7137 38.1334 31.7991 38.0652C31.9163 37.9708 32.0113 37.8509 32.12 37.7471C32.3815 37.4978 32.3768 36.9729 32.2203 36.7224C32.073 36.4866 31.8862 36.286 31.6829 36.1098C31.4273 35.8874 30.979 35.8794 30.6947 36.1512C30.5969 36.2447 30.4858 36.3226 30.3992 36.4294C30.3474 36.4934 30.2995 36.4948 30.2381 36.4397C30.0932 36.3089 29.9468 36.1797 29.7965 36.0562C29.5609 35.8626 29.313 35.6882 29.0616 35.5181C28.8437 35.3706 28.8538 35.4038 28.9646 35.1596C29.0108 35.0624 29.0514 34.9623 29.0862 34.8598C29.2129 34.4607 29.0981 34.0235 28.6938 33.8053C28.5195 33.7118 28.3444 33.6153 28.1565 33.5609C27.8927 33.4846 27.6353 33.4986 27.4035 33.6817C27.3095 33.757 27.2341 33.8554 27.1838 33.9686C27.1214 34.1036 27.0666 34.2424 27.0068 34.3786C26.9615 34.4813 26.9516 34.4877 26.8494 34.4536C26.4577 34.3227 26.0571 34.2332 25.652 34.1648C25.5558 34.1492 25.4592 34.1336 25.3628 34.119C25.2232 34.0975 25.2123 34.0859 25.2098 33.93C25.2079 33.8003 25.2084 33.6705 25.2098 33.5404C25.2131 33.1801 25.034 32.9482 24.7442 32.7978C24.6609 32.7531 24.5698 32.7274 24.4766 32.7225C24.2577 32.7146 24.0384 32.6998 23.8198 32.7381C23.4029 32.8123 23.1441 33.1218 23.1312 33.57C23.1279 33.684 23.1312 33.7983 23.1298 33.9128C23.1278 34.0878 23.1211 34.0931 22.9627 34.1199C22.476 34.2019 21.9907 34.2913 21.5178 34.4436C21.405 34.4797 21.3915 34.4719 21.3399 34.3535C21.2909 34.2405 21.2429 34.1269 21.1934 34.0139C20.9986 33.565 20.5467 33.4199 20.1303 33.5813C19.9744 33.6414 19.8221 33.712 19.6746 33.7925C19.4324 33.9257 19.2727 34.1314 19.2204 34.4244C19.1935 34.5782 19.2071 34.7369 19.2596 34.883C19.3051 35.0149 19.3653 35.1394 19.4221 35.2658C19.4703 35.373 19.4649 35.3974 19.3727 35.4568C18.9841 35.7077 18.621 35.9963 18.2666 36.2983C18.221 36.3371 18.1787 36.3811 18.1347 36.421C18.059 36.4886 18.0357 36.4885 17.9589 36.418C17.8741 36.3401 17.7866 36.265 17.7072 36.181C17.4079 35.8645 16.8475 35.8664 16.557 36.2026C16.4713 36.3018 16.3897 36.4052 16.3017 36.5019C16.1954 36.6187 16.1884 36.6147 16.0793 36.5078C15.9868 36.4168 15.7685 36.2126 15.7529 36.2005C15.6074 36.028 15.6134 36.0267 15.7607 35.8498C17.0125 34.3468 18.5995 33.2027 20.3758 32.5226C21.2711 32.1798 22.1925 31.9563 23.1392 31.8695C23.7175 31.8184 24.2985 31.8126 24.8776 31.852C25.6618 31.9021 26.4389 32.039 27.1964 32.2606C27.8178 32.4414 28.4223 32.6826 29.0021 32.9814C29.3983 33.1801 29.7826 33.4046 30.1528 33.6537C30.6714 34.0029 31.1623 34.3967 31.6207 34.831C32.0592 35.2499 32.4709 35.6995 32.8531 36.1768C32.905 36.2454 32.9535 36.3167 32.9985 36.3906C33.3561 36.8199 33.6431 37.3024 33.9111 37.7959C34.45 38.7842 34.8532 39.8495 35.1083 40.9594C35.1974 41.3475 35.2568 41.7415 35.3225 42.1344C35.3798 42.4772 35.6163 42.5945 35.9064 42.4286C36.2703 42.2205 36.5014 41.7259 36.4485 41.2879C36.437 41.1928 36.3752 41.0853 36.4712 40.996C36.5472 40.9505 36.631 40.9542 36.7138 40.9539C37.1533 40.9525 37.592 40.9478 38.0309 40.9561C38.2122 40.9595 38.3335 40.8875 38.4306 40.7278C38.7937 40.1296 39.0702 39.4768 39.2511 38.7912C39.3936 38.2562 39.4962 37.713 39.5309 37.1567C39.5351 37.0996 39.5342 37.0422 39.5283 36.9853C39.5206 36.9176 39.5366 36.862 39.5954 36.8266C39.6906 36.8247 39.8989 36.812 39.9083 36.811C40.2728 36.7881 40.2728 36.7883 40.2736 37.178C40.2736 37.4741 40.2718 37.7702 40.2744 38.0653C40.2768 38.3359 40.3446 38.4194 40.5932 38.4861C41.1888 38.6474 41.7914 38.6994 42.4057 38.6655C42.6894 38.6499 42.9668 38.5957 43.2484 38.572C43.3067 38.565 43.3637 38.5493 43.4178 38.5252C43.5888 38.4556 43.639 38.385 43.6415 38.1874C43.6459 37.819 43.6402 37.4506 43.6447 37.0822C43.6458 37.0018 43.6301 36.9136 43.6972 36.8484C43.8078 36.758 43.9134 36.8271 44.0123 36.871C44.2566 36.9801 44.4403 37.174 44.6091 37.3836C44.9214 37.7718 45.1534 38.2151 45.3733 38.6661C45.3926 38.7024 45.4008 38.7443 45.3967 38.7858C45.3889 38.8866 45.3201 38.9369 45.2502 38.9852C44.6746 39.3809 44.1578 39.8506 43.6825 40.3748C43.1374 40.9756 42.6853 41.6472 42.3024 42.3731C41.8576 43.2162 41.5552 44.1149 41.3766 45.0622C41.3612 45.1415 41.3765 45.2542 41.2565 45.2676Z" fill="#45423D"/>
<path d="M41.2559 45.2674C41.293 45.0905 41.3283 44.9132 41.3672 44.7376C41.6858 43.2939 42.2977 42.0055 43.1813 40.861C43.768 40.0962 44.4638 39.434 45.2435 38.8986C45.2883 38.8674 45.3377 38.8425 45.3654 38.7895C45.4005 38.7271 48.0595 36.9071 51.0331 37.492C51.2101 37.6287 51.2309 37.8915 51.1348 38.1298C51.0409 38.3623 50.8658 38.4356 50.5852 38.4284C50.3263 38.4217 50.068 38.4069 49.8103 38.4219C49.377 38.445 48.946 38.5033 48.521 38.5962C47.3569 38.8557 46.2964 39.3589 45.3451 40.1181C44.2337 41.0051 43.3948 42.127 42.8189 43.4708C42.5854 44.0196 42.4096 44.5942 42.2945 45.184C42.2875 45.2194 42.1919 45.7895 42.1626 46.0411C42.136 46.2749 42.0308 46.4379 41.8186 46.515C41.507 46.6282 41.174 46.3863 41.1673 46.0363C41.1636 45.8599 41.1993 45.6865 41.2242 45.5125C41.2342 45.4437 41.2451 45.2788 41.2559 45.2674Z" fill="#A19D98"/>
<path d="M38.7198 44.0536C38.1881 44.0536 37.6564 44.0553 37.1248 44.0528C36.8758 44.0516 36.6953 43.9222 36.5926 43.685C36.4899 43.4479 36.5215 43.2175 36.6707 43.0117C36.789 42.8488 36.9584 42.7863 37.1467 42.7799C37.2734 42.7757 37.4003 42.7782 37.5276 42.7784C38.425 42.779 39.3225 42.7796 40.2199 42.7802C40.39 42.7802 40.5484 42.8114 40.6831 42.9342C40.8692 43.1041 40.945 43.3794 40.8675 43.6247C40.8296 43.7491 40.7558 43.8575 40.6567 43.9347C40.5575 44.0119 40.438 44.0538 40.3151 44.0545C39.7834 44.0575 39.2519 44.0555 38.7202 44.0555L38.7198 44.0536Z" fill="#FCBE4F"/>
<path d="M21.8995 30.5991C21.9328 30.6273 21.9709 30.6281 22.01 30.6198C22.3426 30.5506 22.679 30.5107 23.0156 30.4736C23.0449 30.4702 23.0303 30.4707 23.1134 30.4623C24.2957 30.3688 25.8717 30.4376 27.111 30.7858C27.3843 30.8662 27.6596 30.926 27.9331 31.0058C27.9611 31.0075 29.2999 31.5283 29.82 31.8257C29.8666 31.861 29.8893 31.8799 29.9226 31.907C29.944 32.1621 29.8694 32.3538 29.7293 32.5278C29.5343 32.7705 29.2766 32.9444 28.9883 33.0546C28.6174 32.8832 28.2482 32.7075 27.8653 32.567C27.1876 32.318 26.4893 32.1374 25.7798 32.0276C25.1616 31.934 24.5373 31.8939 23.913 31.9076C23.1764 31.9207 22.443 32.0145 21.7244 32.1873C19.4942 32.7201 17.4719 33.9696 15.9319 35.7663C15.8827 35.8239 15.8324 35.8805 15.783 35.9377C15.6805 36.0574 15.6356 36.135 15.56 36.2302C15.4345 36.3885 15.3123 36.5501 15.19 36.7114C14.9043 37.0877 14.4022 37.108 14.0894 36.7134C13.8777 36.4462 13.9136 36.0433 14.0859 35.7895C14.2737 35.5179 14.4746 35.2566 14.6876 35.0069C14.9053 34.7477 15.1174 34.4831 15.3561 34.2452C15.6906 33.912 16.0236 33.5762 16.3874 33.279C17.6296 32.2642 18.9912 31.4903 20.4917 31.0016C20.8883 30.8721 21.291 30.7652 21.6982 30.6812C21.77 30.6669 21.8453 30.6614 21.8995 30.5991Z" fill="#EDAE50"/>
<path d="M34.1087 35.6162C34.4722 36.0736 34.768 36.5802 35.0537 37.0935C35.3896 37.6974 35.669 38.3307 35.9056 38.9855C36.1226 39.5867 36.3103 40.1973 36.4351 40.8284C36.4498 40.8995 36.4675 40.9687 36.4838 41.0401C36.5164 41.2336 36.554 41.4253 36.5141 41.6249C36.4325 42.0341 36.2409 42.3545 35.8747 42.533C35.5681 42.6824 35.3019 42.5261 35.2518 42.171C35.1199 41.2359 34.9045 40.3231 34.5762 39.4423C34.1878 38.4004 33.6788 37.432 33.0314 36.5455C33.0021 36.5048 32.9746 36.4618 32.9463 36.4198C33.0163 36.1725 33.1615 35.9724 33.3011 35.7669C33.3795 35.6514 33.5007 35.6703 33.6018 35.6365C33.7653 35.5818 33.937 35.537 34.1087 35.6162Z" fill="#EDAE50"/>
<path d="M34.0259 35.5949C33.2243 35.526 32.9725 36.367 32.9468 36.4197C32.6006 35.9712 32.2354 35.5417 31.8379 35.1434C31.03 34.3314 30.1134 33.6515 29.1178 33.1258C29.0738 33.1029 29.0315 33.079 28.9883 33.0546C29.0256 33.0078 29.3554 32.9391 29.6304 32.5403C29.8631 32.2029 29.9179 31.9742 29.9226 31.907C30.185 32.0119 30.4141 32.1822 30.652 32.3335C31.0634 32.5929 31.4589 32.8797 31.8361 33.1923C32.1769 33.4772 32.5076 33.7739 32.8224 34.0928C33.0382 34.3109 33.2404 34.542 33.4444 34.7708C33.6817 35.037 33.921 35.3047 34.1088 35.6162" fill="#FF9400"/>
<path d="M54.8157 39.4448C54.7296 39.2918 54.5988 39.1799 54.4934 39.043C53.927 38.3083 53.521 37.4809 53.2352 36.584C53.2024 36.481 53.1723 36.3769 53.1395 36.2737C53.1257 36.2301 53.1153 36.1802 53.0567 36.1818C52.3349 35.5241 51.4634 35.1574 50.61 34.7559C49.3207 34.15 47.9746 33.7336 46.6128 33.3666C45.5447 33.0788 44.4626 32.8653 43.3773 32.6678C43.2785 32.6499 43.1729 32.6412 43.1048 32.5432C43.0869 32.4721 43.0869 32.3995 43.0867 32.327C43.0853 31.4684 43.0857 30.6097 43.0881 29.7511C43.0881 29.6576 43.0609 29.55 43.1559 29.4809C43.3699 29.5368 43.5909 29.5368 43.808 29.5689C44.2182 29.6294 44.6311 29.6744 45.0407 29.7403C45.5711 29.8248 46.1032 29.8999 46.6293 30.0121C46.9927 30.09 47.3579 30.1556 47.7206 30.2379C48.1454 30.3344 48.5703 30.4319 48.9899 30.5455C49.6894 30.7345 50.3886 30.9264 51.0704 31.1815C51.3417 31.2829 51.6108 31.3925 51.8855 31.4825C52.1655 31.5742 52.385 31.7571 52.5938 31.9631C53.048 32.4112 53.501 32.8604 53.9393 33.3261C54.2323 33.6377 54.5268 33.9472 54.8062 34.2732C54.9272 34.4144 55.0611 34.5436 55.1871 34.6809C55.4049 34.9187 55.6075 35.1713 55.8305 35.4041C56.0095 35.5911 56.1154 35.8266 56.1286 36.0962C56.1471 36.4749 56.1356 36.8506 56.0453 37.2232C55.8788 37.9089 55.5717 38.5137 55.1555 39.0605C55.0512 39.1965 54.9434 39.3304 54.8157 39.4448Z" fill="#EDAE50"/>
<path d="M36.5687 31.4422L35.56 30.6979C35.5433 30.6872 35.5274 30.6752 35.5126 30.6617C35.4515 30.5994 35.4148 30.6281 35.3763 30.6929C35.3192 30.7892 35.255 30.881 35.1935 30.9744C35.0477 31.1949 34.9048 31.4177 34.755 31.6349C34.6436 31.7962 34.5024 31.8459 34.3465 31.794C34.1131 31.7161 34.0078 31.4489 34.1234 31.2175C34.1597 31.1445 34.2079 31.0781 34.2524 31.0102C34.7655 30.2279 35.2789 29.4458 35.7927 28.6638C35.8249 28.6119 35.8604 28.5624 35.899 28.5157C36.033 28.3624 36.236 28.3384 36.3897 28.4534C36.4645 28.509 36.5173 28.592 36.5381 28.6865C36.5589 28.7809 36.5462 28.8802 36.5024 28.9653C36.4568 29.0565 36.3984 29.1405 36.3425 29.2254C36.1833 29.4676 36.0224 29.7085 35.8621 29.9499C35.7983 30.0462 35.7969 30.0482 35.8882 30.116C36.2321 30.371 36.5765 30.6252 36.9212 30.8787L36.5687 31.4422Z" fill="#45423E"/>
<path d="M40.7272 29.2882C40.7742 29.3236 40.7711 29.3775 40.7711 29.4284C40.7723 30.3384 40.7723 31.2483 40.7711 32.158C40.7724 32.1891 40.7674 32.2201 40.7565 32.2489C40.6961 32.3268 40.61 32.3237 40.5285 32.324C40.2267 32.3256 39.925 32.3084 39.6237 32.3022C38.7812 32.2829 37.9388 32.2946 37.0953 32.2963C37.0367 32.2963 36.9781 32.2997 36.9238 32.3274C36.8917 32.343 36.8624 32.3655 36.8669 32.4083C36.8715 32.4512 36.9053 32.4644 36.9393 32.4739C36.9629 32.4804 36.9873 32.4834 37.0117 32.4828C37.4253 32.4733 37.8386 32.4915 38.2529 32.464C38.6507 32.4373 39.0505 32.4454 39.4501 32.471C39.7946 32.4929 40.1404 32.5021 40.4857 32.5154C40.5736 32.5186 40.6615 32.5123 40.7398 32.5679C40.7789 32.7764 40.8401 32.9827 40.7984 33.1998C40.7974 33.2196 40.7921 33.239 40.7829 33.2562C40.7184 33.3379 40.6182 33.3396 40.5345 33.3767C40.376 33.4468 40.2972 33.5612 40.3022 33.7473C40.3249 34.597 40.2619 35.4459 40.2729 36.2955C40.2742 36.394 40.2761 36.4921 40.2863 36.5903C40.3085 36.8026 40.2534 36.8725 40.0519 36.8942C39.9986 36.8998 39.945 36.9015 39.8908 36.9029C39.7971 36.9043 39.7035 36.9048 39.6102 36.897C39.3362 36.9425 39.0589 36.9458 38.7828 36.9657C38.2711 37.0023 37.8951 36.7809 37.6286 36.3112C37.2584 35.6597 36.8851 35.0105 36.5464 34.3393C36.3944 34.0382 36.2533 33.7315 36.0934 33.4345C35.8362 32.9573 35.8334 32.4909 36.1339 32.0343C36.2649 31.8353 36.3604 31.6111 36.5171 31.4308C36.6039 31.2137 36.7446 31.0329 36.8709 30.8423C37.1608 30.3876 37.4667 29.9453 37.7962 29.5221C37.8967 29.3929 38.0367 29.3133 38.1657 29.2206C38.3367 29.1713 38.9569 29.1582 39.1142 29.1528C39.2928 29.1464 39.4719 29.1503 39.6508 29.1528C39.7359 29.1534 40.5631 29.2011 40.7272 29.2882Z" fill="#EDAE50"/>
<path d="M51.2388 38.0372C51.1836 38.0046 51.1493 37.9593 51.1529 37.8877C51.1642 37.6696 51.0315 37.562 50.8691 37.4816C50.6529 37.3978 49.0054 37.2331 47.3676 37.8382C46.7915 38.0365 46.2361 38.2842 45.7135 38.6117C45.6172 38.6722 45.5107 38.7132 45.4204 38.7856C45.4077 38.7958 45.3835 38.7892 45.3646 38.7905C45.2363 38.5952 45.1512 38.3739 45.0354 38.1709C44.8562 37.8567 44.6667 37.5519 44.4245 37.287C44.234 37.0791 44.0185 36.9197 43.7458 36.8612C43.6708 36.8673 43.6597 36.809 43.6505 36.7521C43.6424 36.6853 43.6395 36.6178 43.642 36.5505C43.642 36.0791 43.6341 35.6075 43.6439 35.1363C43.653 34.6903 43.605 34.2466 43.6109 33.8011C43.6131 33.6315 43.5376 33.5165 43.3911 33.4506C43.3328 33.4244 43.2761 33.3942 43.2213 33.3602C43.1796 33.3341 43.1343 33.3071 43.1526 33.2406L43.1582 32.9035C43.2067 32.832 43.2726 32.8421 43.3429 32.8533C44.1536 32.983 44.9587 33.1432 45.7583 33.3341C46.7197 33.5653 47.6754 33.8192 48.6113 34.15C49.3613 34.4149 50.1036 34.7029 50.8224 35.0554C51.1632 35.2226 51.511 35.3763 51.8223 35.6029C51.9395 35.6881 52.0337 35.8014 52.1228 35.9194C52.335 36.1999 52.2813 36.5256 52.2616 36.8447C52.2556 36.9444 52.2109 37.037 52.203 37.1374C52.0195 37.4342 51.8628 37.7488 51.7352 38.0771C51.7091 38.1453 51.6741 38.1706 51.6011 38.1444C51.4832 38.1017 51.3602 38.0725 51.2388 38.0372Z" fill="#EDAE50"/>
<path d="M52.2046 37.1378C52.1637 37.0544 52.1701 36.9642 52.1854 36.8788C52.2173 36.6983 52.206 36.5171 52.206 36.336C52.206 36.1585 52.1137 36.0207 52.0126 35.8942C51.8857 35.7362 51.7301 35.6069 51.5552 35.5141C50.737 35.0719 49.89 34.7038 49.0233 34.3842C48.3968 34.1529 47.7649 33.9419 47.1227 33.7671C46.3111 33.5461 45.4965 33.3423 44.6719 33.1749C44.1981 33.0789 43.7208 33.0069 43.2467 32.9132C43.2181 32.9076 43.1881 32.9065 43.1597 32.9033C43.1597 32.789 43.1597 32.675 43.1597 32.5614C43.4509 32.5908 43.7375 32.6524 44.025 32.7074C44.3988 32.7789 44.772 32.8548 45.1444 32.9352C45.5355 33.0205 45.9268 33.1032 46.3134 33.2124C46.6097 33.296 46.9094 33.367 47.2064 33.4493C47.9331 33.6507 48.651 33.882 49.3601 34.1432C49.936 34.3555 50.493 34.6185 51.0531 34.8729C51.5861 35.1159 52.1029 35.397 52.6001 35.7144C52.7459 35.8071 52.88 35.921 53.0177 36.0278C53.0665 36.0656 53.1103 36.1111 53.0574 36.1817C52.8716 36.3569 52.68 36.5246 52.5153 36.7243C52.4056 36.8573 52.3086 36.9999 52.2046 37.1378Z" fill="#FF9400"/>
<path d="M40.7273 32.2503L40.7282 32.5921C39.7527 32.5068 37.9342 32.5068 37.0163 32.5618C36.9466 32.5582 36.8771 32.5506 36.8081 32.5389C36.7569 32.5266 36.6779 32.4563 36.6792 32.4124C36.6816 32.3317 36.7252 32.2927 36.7818 32.2628C36.8525 32.2251 36.947 32.2181 37.0266 32.2181C37.9048 32.2181 38.7833 32.204 39.661 32.2265C40.0161 32.2355 40.3719 32.2411 40.7273 32.2503Z" fill="#FF9400"/>
<path d="M55.7813 36.3955C55.7862 36.7307 55.7227 37.0391 55.6326 37.3421C55.4734 37.8781 55.2137 38.3566 54.8835 38.7931C54.8166 38.8817 54.813 38.882 54.743 38.7945C54.4219 38.3929 54.1649 37.9476 53.9447 37.4767C53.7791 37.123 53.6436 36.7564 53.5223 36.3837C53.4848 36.2682 53.4892 36.2475 53.5979 36.1883C53.9781 35.9807 54.3766 35.8333 54.8016 35.7688C54.9952 35.7393 55.1906 35.7398 55.3841 35.7145C55.4036 35.7127 55.4232 35.7123 55.4427 35.7133C55.6269 35.7169 55.6558 35.7418 55.7249 35.9202C55.7863 36.0792 55.7851 36.244 55.7813 36.3955Z" fill="#FEFEFE"/>
<path d="M43.1395 29.558C43.1395 30.5486 43.1503 32.7214 43.173 33.3309C43.1187 33.4044 43.048 33.3776 42.9843 33.3583C42.2975 33.145 41.606 33.1766 40.9124 33.3116C40.8538 33.3228 40.7969 33.3382 40.7476 33.2873L40.7439 33.2922C40.7118 33.2455 40.7439 28.4046 40.7398 28.0947C40.7379 27.9616 40.7589 27.841 40.8211 27.7241C40.8976 27.5804 40.9643 27.431 41.0353 27.2839C41.0452 27.2732 41.0583 27.2665 41.0724 27.2652C41.872 27.6284 42.5326 28.05 43.1346 28.7049C43.1258 28.9416 43.1346 29.2585 43.1395 29.558Z" fill="#414141"/>
<path d="M41.0753 27.2082H41.0635L41.0518 27.2059C41.1095 27.0593 41.1129 26.9056 41.1123 26.7495C41.1105 26.2832 41.1177 25.8168 41.1134 25.3507C41.112 25.1807 41.1602 25.0429 41.2599 24.91C41.7523 24.254 42.2871 23.6355 42.8607 23.059C43.2252 22.6924 43.6122 22.3519 44.0373 22.0646C44.1182 22.0852 44.0836 22.1411 44.0653 22.1841C43.8045 22.7956 43.8414 23.4369 43.9233 24.0733C43.9594 24.3538 44.0325 24.6429 44.2518 24.8489C44.2674 24.8619 44.2779 24.8806 44.2812 24.9014C44.2844 24.9222 44.2803 24.9435 44.2695 24.9613C43.7743 25.2061 43.3856 25.5863 43.0573 26.0427C43.0088 26.1101 42.9729 26.1813 42.9849 26.2701C42.9631 26.8257 42.968 27.3807 42.9861 28.2949C42.9854 28.3047 42.9841 28.3145 42.9823 28.3242C42.9091 28.377 42.8613 28.3173 42.8162 28.2765C42.6206 28.0995 42.4306 27.9157 42.2197 27.7579C41.9893 27.585 41.753 27.4238 41.4974 27.2953C41.3629 27.228 41.226 27.1825 41.0753 27.2082Z" fill="#A19D98"/>
<path d="M44.3566 21.9963C44.4554 22.0489 44.5058 22.1366 44.5308 22.2493C44.5946 22.5357 44.6367 22.8272 44.6567 23.1209C44.6911 23.623 44.6227 24.1088 44.5047 24.5908C44.4801 24.6912 44.4519 24.7902 44.3893 24.8731C44.3269 24.8843 44.3077 24.8363 44.2825 24.7903C43.9915 24.2586 43.9388 23.6784 43.9748 23.0808C43.9796 22.9988 43.992 22.9169 43.9971 22.8343C44.0136 22.5168 44.142 22.2176 44.3566 21.9963V21.9963Z" fill="#A19D98"/>
<path d="M43.4579 33.391C43.6097 33.4619 43.6843 33.566 43.6904 33.7592C43.7212 34.7332 43.7129 35.7072 43.7151 36.681C43.7151 36.7433 43.7213 37.003 43.7209 37.0751C43.7186 37.4792 43.7121 37.8834 43.7174 38.2873C43.7193 38.4295 43.6638 38.5107 43.5483 38.5619C42.5837 38.8424 41.3309 38.8286 40.4524 38.5308C40.2545 38.4667 40.2017 38.3882 40.2001 38.1708C40.1981 37.8859 40.2001 37.6009 40.2001 37.3159C40.2001 37.1968 40.2022 37.0776 40.2001 36.9584C40.1981 36.8392 40.2294 34.9922 40.2294 34.9353C40.2294 34.5001 40.2325 34.0647 40.2284 33.6294C40.2271 33.4926 40.2744 33.4103 40.3945 33.3531C41.7898 32.8844 42.522 33.0207 43.4579 33.391Z" fill="#A19D98"/>
<path d="M40.4902 35.9555V33.8547C40.4902 33.8184 40.4892 33.7821 40.4902 33.7456C40.4933 33.6013 40.5049 33.582 40.6354 33.5313C41.1259 33.3311 42.5602 33.1417 43.3259 33.6791C43.4468 33.7467 43.4661 33.8157 43.4714 33.9792C43.491 34.3471 43.4567 37.0803 43.4579 38.1331C43.4579 38.154 43.4579 38.1748 43.4579 38.1955C43.4544 38.3456 43.4449 38.3527 43.3016 38.3844C42.4086 38.5818 41.5206 38.5558 40.6364 38.322C40.5054 38.2876 40.4986 38.2842 40.4983 38.1333C40.4971 37.6508 40.4971 37.1684 40.4983 36.6861C40.4983 36.4422 40.4983 36.1984 40.4983 35.9546L40.4902 35.9555Z" fill="#45423D"/>
<path d="M41.0423 27.238C41.0593 27.1048 41.1359 27.0909 41.2833 27.1277C41.4605 27.1837 41.6299 27.2642 41.7873 27.3672C42.1379 27.5897 42.4736 27.8347 42.7682 28.1386C42.834 28.2065 42.9103 28.2632 42.9818 28.3245C42.9918 28.3693 43.0145 28.4097 43.0469 28.4403C43.1399 28.5293 43.1525 28.6321 43.1336 28.7619C42.979 28.7385 42.8921 28.6404 42.7941 28.5254C42.5281 28.2137 42.2172 27.9614 41.8875 27.7317C41.6845 27.5902 41.3736 27.4356 41.148 27.3399C41.0706 27.3072 41.0334 27.3092 41.0423 27.238Z" fill="#DCF9FB"/>
<path d="M44.3566 21.9963C44.4086 22.0266 44.4422 22.0404 44.308 22.1667C44.1384 22.3284 44.0261 22.7362 44.0375 23.4051C44.0485 23.8484 44.0539 24.2432 44.3891 24.8731C44.3608 24.9198 44.3238 24.9542 44.2693 24.9613C43.7017 24.3677 43.7565 22.5411 44.0369 22.0646C44.1531 21.9367 44.2211 21.9222 44.3566 21.9963Z" fill="#DCF9FB"/>
</g>
<defs>
<clipPath id="clip0_8_1956">
<rect width="43.8974" height="38.4103" fill="white" transform="translate(13.7178 16.4615)"/>
</clipPath>
</defs>
</svg>
