<?xml version="1.0" encoding="UTF-8"?>
<svg id="Layer_1" data-name="Layer 1" xmlns="http://www.w3.org/2000/svg" xmlns:xlink="http://www.w3.org/1999/xlink" viewBox="0 0 1541.92 208.68">
  <defs>
    <linearGradient id="linear-gradient" x1="228.37" y1="969.61" x2="361.26" y2="1006.57" gradientTransform="translate(0 -877.99)" gradientUnits="userSpaceOnUse">
      <stop offset="0" stop-color="#000987"/>
      <stop offset=".11" stop-color="#2248be"/>
      <stop offset=".3" stop-color="#2774d0"/>
      <stop offset="1" stop-color="#2c90e1"/>
    </linearGradient>
    <linearGradient id="linear-gradient-2" x1="32.47" y1="982.33" x2="329.77" y2="982.33" gradientTransform="translate(0 -877.99)" gradientUnits="userSpaceOnUse">
      <stop offset="0" stop-color="#d9403e"/>
      <stop offset=".2" stop-color="#e4af0f"/>
      <stop offset=".28" stop-color="#e3ad0c"/>
      <stop offset=".75" stop-color="#d96c3f"/>
      <stop offset=".89" stop-color="#d33e3c"/>
      <stop offset="1" stop-color="#cf3e3a"/>
    </linearGradient>
    <linearGradient id="linear-gradient-3" x1="88.52" y1="974.91" x2="190.11" y2="984.42" gradientTransform="translate(0 -877.99)" gradientUnits="userSpaceOnUse">
      <stop offset="0" stop-color="#2143bc"/>
      <stop offset=".47" stop-color="#2c7ff7"/>
      <stop offset="1" stop-color="#2143bc"/>
    </linearGradient>
    <linearGradient id="linear-gradient-4" x1="-15.82" y1="975.29" x2="69.28" y2="983.12" gradientTransform="translate(0 -877.99)" gradientUnits="userSpaceOnUse">
      <stop offset=".56" stop-color="#2c90e2"/>
      <stop offset=".88" stop-color="#2143bc"/>
      <stop offset="1" stop-color="#000987"/>
    </linearGradient>
  </defs>
  <path d="M335.75,99.58l-5.99-.84c-18.65-2.33-37.48-4-56.14-5.17-11.33-.84-22.65-1.34-33.81-1.84-.84,1.34-1.84,2.83-2.66,4.17-4.32,6.66-8.67,13.16-12.99,19.82,16.49-.5,32.99-1.17,49.46-2.16,21.16-1.34,80.28-8.49,88.6-9.99-8.82-1.66-17.66-3-26.48-4Z" style="fill: url(#linear-gradient);"/>
  <path d="M288.46,0c-7.15,10.48-13.16,20.99-20.15,31.47-4.17-5.49-11.33-14.83-12.67-16.64-36.47,49.8-72.46,100.1-106.76,151.55C112.42,126.06,32.81,52.29,32.81,52.29c0,0,76.28,106.76,118.58,156.39l4.17-5.99c35.3-49.95,68.78-101.42,101.92-153.06,4.5,4.82,12,12.99,13.49,14.48.67-1.34,13.32-20.15,18.33-29.63l40.81,56.14S303.31,32.32,288.48.02l-.02-.02Z" style="fill: url(#linear-gradient-2);"/>
  <path d="M185.85,90.91c-29.48,0-59.12.84-88.6,2.83-2.83.17-5.66.32-8.49.67,6.66,6.48,13.66,13.16,20.49,19.99,21.16,1.17,42.3,1.84,63.46,1.99.99-1.34,1.84-2.83,2.83-4.17l14.98-21.31c-1.49,0-3.16,0-4.67,0Z" style="fill: url(#linear-gradient-3);"/>
  <path d="M54.97,97.42c-15.5,1.66-39.47,3.5-54.97,6.33,18.83,3.33,46.13,5.66,64.95,7.33-3.5-4.67-6.83-9.32-9.99-13.66Z" style="fill: url(#linear-gradient-4);"/>
  <g>
    <rect x="429.99" y="18.86" width="24.09" height="171.18" style="fill: #fff;"/>
    <path d="M595.01,33.51c-10.36-9.58-25.88-14.65-44.85-14.65h-55.61v171.18h24.09v-70.63h31.52c19.9,0,35.27-5.1,45.69-15.15,9.03-8.71,13.81-20.77,13.81-34.88s-5.06-27.01-14.64-35.87ZM518.64,39.07h31.52c23.5,0,34.92,9.92,34.92,30.31s-11.75,29.83-34.92,29.83h-31.52v-60.14Z" style="fill: #fff;"/>
    <path d="M712.78,16.92c-23.54,0-45.21,8.69-61.02,24.47-16.08,16.04-24.93,38.4-24.93,62.94s8.85,46.89,24.93,62.94c15.81,15.78,37.48,24.47,61.02,24.47s45.33-8.69,61.11-24.47c16.02-16.02,24.84-38.37,24.84-62.93s-8.82-46.92-24.84-62.93c-15.78-15.78-37.49-24.47-61.11-24.47ZM712.78,170.57c-17.28,0-32.86-6.33-43.85-17.83-11.47-12-17.53-28.74-17.53-48.4,0-39.62,24.67-66.23,61.38-66.23s61.38,26.62,61.38,66.23c0,19.66-6.06,36.4-17.53,48.4-10.99,11.5-26.56,17.83-43.85,17.83Z" style="fill: #fff;"/>
    <path d="M946.06,69.62c0-31.31-22.89-50.76-59.74-50.76h-55.61v171.18h24.09v-69.18h25.12l40,68.68.29.5h28.8l-42.68-71.21c24.91-6.05,39.73-24.36,39.73-49.21ZM854.8,39.07h31.52c23.17,0,34.92,10.28,34.92,30.55s-12.4,31.52-34.92,31.52h-31.52v-62.08Z" style="fill: #fff;"/>
    <path d="M1096.75,18.86h-53.67v171.18h53.67c27.57,0,50.54-7.86,66.43-22.72,15.95-14.92,24.38-36.53,24.38-62.5,0-53.02-34.79-85.95-90.81-85.95ZM1096.75,169.84h-29.58V38.83h29.58c42.09,0,66.23,24.05,66.23,65.99s-23.52,65.02-66.23,65.02Z" style="fill: #fff;"/>
    <path d="M1292.35,19.84h-26.89l-61.89,170.21h25.43l13.59-37.62h72.38l13.59,37.62h25.43l-61.41-169.55-.24-.66ZM1307.95,132.46h-58.33l29.16-81.47,29.16,81.47Z" style="fill: #fff;"/>
    <path d="M1517.08,41.4c-15.78-15.78-37.49-24.47-61.11-24.47s-45.21,8.69-61.02,24.47c-16.08,16.04-24.93,38.4-24.93,62.94s8.85,46.89,24.93,62.94c15.81,15.78,37.48,24.47,61.02,24.47s45.33-8.69,61.11-24.47c16.02-16.02,24.84-38.37,24.84-62.93s-8.82-46.92-24.84-62.93ZM1455.97,170.57c-17.28,0-32.86-6.33-43.85-17.83-11.47-12-17.53-28.74-17.53-48.4,0-39.62,24.67-66.23,61.38-66.23s61.38,26.62,61.38,66.23c0,19.66-6.06,36.4-17.53,48.4-10.99,11.5-26.56,17.83-43.85,17.83Z" style="fill: #fff;"/>
  </g>
</svg>