<svg width="590" height="77" viewBox="0 0 590 77" fill="none" xmlns="http://www.w3.org/2000/svg">
<path fill-rule="evenodd" clip-rule="evenodd" d="M242.79 35L233.67 30.58L233.66 30.56C227.03 27.52 224.26 25.17 224.26 20.88C224.26 16.18 228.13 13.14 233.66 13.14C240.44 13.14 245.14 17.43 247.49 22.96L258.14 16.88C254.41 8.02997 246.66 0.839966 233.39 0.839966C220.12 0.839966 210.3 9.96997 210.3 21.03C210.3 32.78 217.08 37.76 225.79 41.77L233.95 45.64C240.58 48.68 243.35 51.31 243.35 55.32C243.35 60.99 239.21 64.03 233.26 64.03C224.82 64.03 219.84 57.81 218.6 51.86L207.12 58.22C209.61 67.9 217.22 76.61 232.84 76.61C248.46 76.61 258.14 67.77 258.14 55.46C258.14 44.54 251.5 39.15 242.79 35ZM168.13 76.63C146.01 76.63 130.11 60.45 130.11 38.75C130.11 17.05 146.01 0.869965 167.86 0.869965C189.71 0.869965 202.98 16.91 202.98 38.75C202.98 40.41 202.84 42.76 202.56 44.14H145.73C147.67 55.89 156.1 63.22 168.27 63.22C177.12 63.22 183.48 60.04 188.6 53.54L197.31 62.53C190.26 71.93 180.3 76.63 168.14 76.63H168.13ZM145.73 33.35H188.18C187.07 22.01 179.05 13.99 167.58 13.99C156.11 13.99 147.67 21.6 145.73 33.35ZM0 3.06998H23.78V26.85H0V3.06998ZM23.78 26.85L47.56 3.06998H71.34V26.85H23.78ZM0 50.63L23.78 26.85V74.41H0V50.63ZM47.56 50.63H71.34V74.41H47.56V50.63ZM581.31 70.35C581.31 67.99 582.98 66.31 585.33 66.31C587.68 66.31 589.37 67.99 589.37 70.35C589.37 72.71 587.69 74.41 585.33 74.41C582.97 74.41 581.31 72.72 581.31 70.35ZM588.47 70.35C588.47 68.5 587.15 67.17 585.33 67.17C583.51 67.17 582.21 68.5 582.21 70.35C582.21 72.2 583.52 73.54 585.33 73.54C587.14 73.54 588.47 72.2 588.47 70.35ZM586.55 69.58C586.29 69.18 585.9 68.91 585.37 68.91C584.61 68.91 584.08 69.5 584.08 70.33C584.08 71.16 584.62 71.74 585.37 71.74C585.9 71.74 586.3 71.47 586.56 71.07L587.2 71.59C586.82 72.23 586.17 72.6 585.37 72.6C584.02 72.6 583.13 71.66 583.13 70.35C583.13 69.04 584.07 68.09 585.37 68.09C586.16 68.09 586.83 68.45 587.2 69.1L586.55 69.6V69.58ZM128.17 16.34V3.06998H95.13V74.41H110.06V16.34H128.17ZM300.93 76.63C278.81 76.63 262.91 60.45 262.91 38.75C262.91 17.05 278.81 0.869965 300.66 0.869965C322.51 0.869965 335.78 16.91 335.78 38.75C335.78 40.41 335.64 42.76 335.36 44.14H278.53C280.47 55.89 288.9 63.22 301.07 63.22C309.92 63.22 316.28 60.04 321.4 53.54L330.11 62.53C323.06 71.93 313.1 76.63 300.94 76.63H300.93ZM278.53 33.35H320.98C319.87 22.01 311.85 13.99 300.38 13.99C288.91 13.99 280.47 21.6 278.53 33.35ZM376.87 16.34V3.06998H343.83V74.41H358.76V16.34H376.87ZM407.35 74.41L382.6 3.06998H398.64L417.03 61.28H417.58L435.97 3.06998H451.87L427.26 74.41H407.35ZM487.96 0.859955C466.12 0.859955 450.08 16.89 450.08 38.74C450.08 60.44 466.12 76.62 487.96 76.62C509.8 76.62 525.98 60.58 525.98 38.74C525.98 16.9 509.8 0.859955 487.96 0.859955ZM487.97 13.99C501.38 13.99 510.78 24.22 510.78 38.6C510.78 52.84 501.24 63.21 487.97 63.21C474.7 63.21 465.16 52.98 465.16 38.6C465.16 24.22 474.56 13.99 487.97 13.99ZM532.86 74.41V3.06998H547.79V74.41H532.86ZM589.37 16.34V3.06998H556.33V74.41H571.26V16.34H589.37Z" fill="#FFF"/>
</svg>
