<svg xmlns="http://www.w3.org/2000/svg" xmlns:xlink="http://www.w3.org/1999/xlink" viewBox="0 0 320 90" version="1.0">
<g transform="translate(-30, -140)">
  <g fill="#ffffff" fill-opacity="1">
    <g transform="translate(136.621006, 206.568969)">
      <g>
        <path d="M 9.84375 -2.953125 C 11.851562 -2.953125 13.1875 -3.113281 13.84375 -3.4375 C 14.507812 -3.769531 14.941406 -4.125 15.140625 -4.5 C 15.335938 -4.875 15.4375 -5.332031 15.4375 -5.875 L 15.4375 -37.09375 L 9.9375 -37.09375 C 6.988281 -37.09375 5.300781 -35.53125 4.875 -32.40625 L 4.09375 -26.96875 L 0.21875 -26.984375 L 1.390625 -40.203125 L 35.515625 -40.203125 L 36.6875 -26.984375 L 32.8125 -26.96875 L 32.03125 -32.40625 C 31.832031 -33.851562 31.445312 -34.878906 30.875 -35.484375 C 29.84375 -36.554688 28.539062 -37.09375 26.96875 -37.09375 L 21.46875 -37.09375 L 21.46875 -5.875 C 21.46875 -4.75 21.835938 -3.976562 22.578125 -3.5625 C 23.316406 -3.15625 24.8125 -2.953125 27.0625 -2.953125 L 27.0625 0 L 9.84375 0 Z M 9.84375 -2.953125 " />
      </g>
    </g>
  </g>
  <g fill="#ffffff" fill-opacity="1">
    <g transform="translate(173.527343, 206.568969)">
      <g>
        <path d="M 25.59375 -6.40625 C 25.59375 -4.28125 26.015625 -3.21875 26.859375 -3.21875 C 27.660156 -3.21875 28.25 -3.488281 28.625 -4.03125 C 29 -4.570312 29.1875 -5.5625 29.1875 -7 L 32 -7 C 32.019531 -6.757812 32.03125 -6.390625 32.03125 -5.890625 C 32.03125 -4.285156 31.628906 -2.894531 30.828125 -1.71875 C 29.835938 -0.21875 28.269531 0.53125 26.125 0.53125 C 24.738281 0.53125 23.550781 0.140625 22.5625 -0.640625 C 21.582031 -1.429688 20.90625 -2.46875 20.53125 -3.75 C 17.9375 -0.894531 14.65625 0.53125 10.6875 0.53125 C 8.507812 0.53125 6.613281 -0.101562 5 -1.375 C 3.382812 -2.65625 2.578125 -4.441406 2.578125 -6.734375 C 2.578125 -10.691406 5.503906 -13.617188 11.359375 -15.515625 C 15.078125 -16.691406 17.300781 -17.507812 18.03125 -17.96875 C 18.769531 -18.425781 19.25 -18.890625 19.46875 -19.359375 C 19.695312 -19.835938 19.8125 -20.367188 19.8125 -20.953125 C 19.8125 -22.015625 19.289062 -22.894531 18.25 -23.59375 C 17.21875 -24.300781 15.867188 -24.65625 14.203125 -24.65625 C 12.546875 -24.65625 11.082031 -24.207031 9.8125 -23.3125 C 10.707031 -22.65625 11.15625 -21.804688 11.15625 -20.765625 C 11.15625 -19.734375 10.804688 -18.90625 10.109375 -18.28125 C 9.421875 -17.65625 8.59375 -17.34375 7.625 -17.34375 C 6.65625 -17.34375 5.851562 -17.632812 5.21875 -18.21875 C 4.582031 -18.8125 4.265625 -19.632812 4.265625 -20.6875 C 4.265625 -22.78125 5.316406 -24.472656 7.421875 -25.765625 C 9.535156 -27.066406 12.097656 -27.71875 15.109375 -27.71875 C 20.503906 -27.71875 23.800781 -25.960938 25 -22.453125 C 25.394531 -21.296875 25.59375 -19.957031 25.59375 -18.4375 Z M 13.78125 -13.078125 C 12.207031 -12.398438 11.023438 -11.53125 10.234375 -10.46875 C 9.453125 -9.40625 9.0625 -8.25 9.0625 -7 C 9.0625 -5.75 9.398438 -4.800781 10.078125 -4.15625 C 10.753906 -3.507812 11.601562 -3.1875 12.625 -3.1875 C 14.695312 -3.1875 16.410156 -3.914062 17.765625 -5.375 C 19.128906 -6.832031 19.8125 -8.863281 19.8125 -11.46875 L 19.8125 -15.59375 C 18.664062 -15.007812 17.453125 -14.472656 16.171875 -13.984375 C 14.898438 -13.503906 14.101562 -13.203125 13.78125 -13.078125 Z M 13.78125 -13.078125 " />
      </g>
    </g>
  </g>
  <g fill="#ffffff" fill-opacity="1">
    <g transform="translate(204.939273, 206.568969)">
      <g>
        <path d="M 18.8125 -23.6875 C 15.882812 -23.6875 13.507812 -22.773438 11.6875 -20.953125 L 11.6875 -5.765625 C 11.6875 -4.648438 11.863281 -3.953125 12.21875 -3.671875 C 12.84375 -3.191406 14.023438 -2.953125 15.765625 -2.953125 L 15.765625 0 L 2.140625 0 L 2.140625 -2.953125 C 3.679688 -2.953125 4.644531 -3.109375 5.03125 -3.421875 C 5.425781 -3.734375 5.664062 -4.066406 5.75 -4.421875 C 5.84375 -4.773438 5.890625 -5.222656 5.890625 -5.765625 L 5.890625 -20.375 C 5.890625 -21.65625 5.773438 -22.492188 5.546875 -22.890625 C 5.328125 -23.285156 4.71875 -23.484375 3.71875 -23.484375 L 2.09375 -23.484375 L 2.09375 -26.421875 C 3.769531 -26.421875 5.085938 -26.550781 6.046875 -26.8125 C 7.003906 -27.070312 7.679688 -27.257812 8.078125 -27.375 C 8.484375 -27.488281 8.914062 -27.546875 9.375 -27.546875 C 10.320312 -27.546875 10.941406 -27.273438 11.234375 -26.734375 C 11.535156 -26.191406 11.6875 -25.320312 11.6875 -24.125 C 13.59375 -25.726562 15.804688 -26.816406 18.328125 -27.390625 C 19.171875 -27.585938 19.992188 -27.6875 20.796875 -27.6875 C 26.585938 -27.6875 29.484375 -23.851562 29.484375 -16.1875 L 29.484375 -5.8125 C 29.484375 -4.632812 29.648438 -3.863281 29.984375 -3.5 C 30.328125 -3.132812 31.257812 -2.953125 32.78125 -2.953125 L 32.78125 0 L 20.09375 0 L 20.09375 -2.953125 C 21.726562 -2.953125 22.707031 -3.113281 23.03125 -3.4375 C 23.363281 -3.769531 23.554688 -4.113281 23.609375 -4.46875 C 23.660156 -4.832031 23.6875 -5.28125 23.6875 -5.8125 L 23.6875 -15.84375 C 23.6875 -18.320312 23.457031 -20.023438 23 -20.953125 C 22.082031 -22.773438 20.6875 -23.6875 18.8125 -23.6875 Z M 18.8125 -23.6875 " />
      </g>
    </g>
  </g>
  <g fill="#ffffff" fill-opacity="1">
    <g transform="translate(239.272619, 206.568969)">
      <g>
        <path d="M 29 -3.515625 C 30.226562 -3.515625 30.84375 -4.828125 30.84375 -7.453125 L 33.453125 -7.453125 C 33.578125 -6.878906 33.640625 -6.375 33.640625 -5.9375 C 33.640625 -5.5 33.628906 -5.007812 33.609375 -4.46875 C 33.585938 -3.9375 33.390625 -3.25 33.015625 -2.40625 C 32.085938 -0.445312 30.332031 0.53125 27.75 0.53125 C 25.164062 0.53125 23.085938 -0.941406 21.515625 -3.890625 C 21.078125 -4.722656 20.640625 -5.570312 20.203125 -6.4375 C 19.046875 -8.789062 18.082031 -10.394531 17.3125 -11.25 C 15.988281 -12.695312 14.390625 -13.421875 12.515625 -13.421875 C 12.367188 -13.421875 12.222656 -13.421875 12.078125 -13.421875 C 11.941406 -13.421875 11.800781 -13.414062 11.65625 -13.40625 L 11.65625 -5.8125 C 11.65625 -4.707031 11.890625 -3.953125 12.359375 -3.546875 C 12.835938 -3.148438 13.9375 -2.953125 15.65625 -2.953125 L 15.65625 0 L 1.796875 0 L 1.796875 -2.953125 C 3.347656 -2.953125 4.414062 -3.164062 5 -3.59375 C 5.582031 -4.019531 5.875 -4.757812 5.875 -5.8125 L 5.875 -34.84375 C 5.875 -36.125 5.757812 -36.960938 5.53125 -37.359375 C 5.3125 -37.753906 4.703125 -37.953125 3.703125 -37.953125 L 1.53125 -37.953125 L 1.53125 -40.90625 C 3.332031 -40.90625 4.742188 -41.03125 5.765625 -41.28125 C 6.785156 -41.539062 7.515625 -41.726562 7.953125 -41.84375 C 8.390625 -41.96875 8.847656 -42.03125 9.328125 -42.03125 C 10.253906 -42.03125 10.875 -41.757812 11.1875 -41.21875 C 11.5 -40.6875 11.65625 -39.8125 11.65625 -38.59375 L 11.65625 -16.328125 L 13.03125 -16.328125 C 15.976562 -18.398438 18.550781 -20.625 20.75 -23 C 21.101562 -23.375 21.367188 -23.695312 21.546875 -23.96875 L 16.90625 -23.96875 L 16.90625 -27.171875 L 31.703125 -27.171875 L 31.703125 -23.96875 C 28.378906 -23.875 24.976562 -22.28125 21.5 -19.1875 C 20.4375 -18.28125 19.378906 -17.304688 18.328125 -16.265625 C 21.265625 -15.160156 23.644531 -12.6875 25.46875 -8.84375 C 25.90625 -7.875 26.3125 -6.992188 26.6875 -6.203125 C 27.0625 -5.410156 27.425781 -4.765625 27.78125 -4.265625 C 28.144531 -3.765625 28.550781 -3.515625 29 -3.515625 Z M 29 -3.515625 " />
      </g>
    </g>
  </g>
  <g fill="#ffffff" fill-opacity="1">
    <g transform="translate(273.230738, 206.568969)">
      <g>
        <path d="M 27.421875 -12.359375 L 8.8125 -12.359375 C 8.8125 -9.285156 9.539062 -6.90625 11 -5.21875 C 12.457031 -3.539062 14.257812 -2.703125 16.40625 -2.703125 C 19.28125 -2.703125 21.34375 -3.890625 22.59375 -6.265625 L 26.59375 -6.296875 C 26.175781 -4.390625 25 -2.773438 23.0625 -1.453125 C 21.125 -0.128906 18.507812 0.53125 15.21875 0.53125 C 11.9375 0.53125 9.097656 -0.484375 6.703125 -2.515625 C 3.835938 -4.960938 2.40625 -8.410156 2.40625 -12.859375 C 2.40625 -17.304688 3.546875 -20.894531 5.828125 -23.625 C 8.109375 -26.351562 11.375 -27.71875 15.625 -27.71875 C 21.21875 -27.71875 24.835938 -25.460938 26.484375 -20.953125 C 27.140625 -19.148438 27.46875 -17.441406 27.46875 -15.828125 C 27.46875 -14.222656 27.453125 -13.066406 27.421875 -12.359375 Z M 21.234375 -16.375 C 21.234375 -21.84375 19.375 -24.578125 15.65625 -24.578125 C 13.5625 -24.578125 11.925781 -23.765625 10.75 -22.140625 C 9.582031 -20.515625 8.945312 -18.265625 8.84375 -15.390625 L 21.203125 -15.390625 C 21.222656 -15.722656 21.234375 -16.050781 21.234375 -16.375 Z M 21.234375 -16.375 " />
      </g>
    </g>
  </g>
  <g fill="#ffffff" fill-opacity="1">
    <g transform="translate(303.141756, 206.568969)">
      <g>
        <path d="M 18.8125 -23.6875 C 15.882812 -23.6875 13.507812 -22.773438 11.6875 -20.953125 L 11.6875 -5.765625 C 11.6875 -4.648438 11.863281 -3.953125 12.21875 -3.671875 C 12.84375 -3.191406 14.023438 -2.953125 15.765625 -2.953125 L 15.765625 0 L 2.140625 0 L 2.140625 -2.953125 C 3.679688 -2.953125 4.644531 -3.109375 5.03125 -3.421875 C 5.425781 -3.734375 5.664062 -4.066406 5.75 -4.421875 C 5.84375 -4.773438 5.890625 -5.222656 5.890625 -5.765625 L 5.890625 -20.375 C 5.890625 -21.65625 5.773438 -22.492188 5.546875 -22.890625 C 5.328125 -23.285156 4.71875 -23.484375 3.71875 -23.484375 L 2.09375 -23.484375 L 2.09375 -26.421875 C 3.769531 -26.421875 5.085938 -26.550781 6.046875 -26.8125 C 7.003906 -27.070312 7.679688 -27.257812 8.078125 -27.375 C 8.484375 -27.488281 8.914062 -27.546875 9.375 -27.546875 C 10.320312 -27.546875 10.941406 -27.273438 11.234375 -26.734375 C 11.535156 -26.191406 11.6875 -25.320312 11.6875 -24.125 C 13.59375 -25.726562 15.804688 -26.816406 18.328125 -27.390625 C 19.171875 -27.585938 19.992188 -27.6875 20.796875 -27.6875 C 26.585938 -27.6875 29.484375 -23.851562 29.484375 -16.1875 L 29.484375 -5.8125 C 29.484375 -4.632812 29.648438 -3.863281 29.984375 -3.5 C 30.328125 -3.132812 31.257812 -2.953125 32.78125 -2.953125 L 32.78125 0 L 20.09375 0 L 20.09375 -2.953125 C 21.726562 -2.953125 22.707031 -3.113281 23.03125 -3.4375 C 23.363281 -3.769531 23.554688 -4.113281 23.609375 -4.46875 C 23.660156 -4.832031 23.6875 -5.28125 23.6875 -5.8125 L 23.6875 -15.84375 C 23.6875 -18.320312 23.457031 -20.023438 23 -20.953125 C 22.082031 -22.773438 20.6875 -23.6875 18.8125 -23.6875 Z M 18.8125 -23.6875 " />
      </g>
    </g>
  </g>
  <g>
    <path fill="#36454f" d="M 80.292969 187.496094 L 44.015625 187.496094 L 76.414062 182.054688 L 79.101562 185.820312 Z M 80.292969 187.496094 " fill-opacity="1" fill-rule="nonzero" />
  </g>
  <path fill="#080707" d="M 85.847656 181.902344 L 85.847656 181.945312 L 85.820312 181.925781 Z M 85.847656 181.902344 " fill-opacity="1" fill-rule="nonzero" />
  <path fill="#080707" d="M 91.398438 187.496094 L 91.363281 187.496094 L 91.382812 187.46875 Z M 91.398438 187.496094 " fill-opacity="1" fill-rule="nonzero" />
  <g clip-path="url(#51e476e6df)">
    <path fill="#d9d9d9" d="M 91.292969 196.929688 L 85.847656 229.328125 L 85.847656 193.09375 L 85.875 193.074219 L 87.523438 194.246094 Z M 91.292969 196.929688 " fill-opacity="1" fill-rule="nonzero" />
  </g>
  <g clip-path="url(#8500d79bb4)">
    <path fill="#d9d9d9" d="M 80.3125 187.527344 L 79.113281 189.253906 L 76.53125 192.964844 L 44.015625 187.496094 L 80.292969 187.496094 Z M 80.3125 187.527344 " fill-opacity="1" fill-rule="nonzero" />
  </g>
  <path fill="#d9d9d9" d="M 80.335938 187.496094 L 80.3125 187.527344 L 80.292969 187.496094 Z M 80.335938 187.496094 " fill-opacity="1" fill-rule="nonzero" />
  <path fill="#d9d9d9" d="M 85.875 193.074219 L 85.847656 193.09375 L 85.847656 193.050781 Z M 85.875 193.074219 " fill-opacity="1" fill-rule="nonzero" />
  <g clip-path="url(#d4f954747b)">
    <path fill="#36454f" d="M 91.277344 177.949219 L 87.449219 180.738281 L 85.847656 181.902344 L 85.847656 145.667969 Z M 91.277344 177.949219 " fill-opacity="1" fill-rule="nonzero" />
  </g>
  <path fill="#080707" d="M 91.867188 181.480469 L 91.761719 181.460938 L 91.851562 181.371094 Z M 91.867188 181.480469 " fill-opacity="1" fill-rule="nonzero" />
  <path fill="#d9d9d9" d="M 127.675781 187.496094 L 91.398438 187.496094 L 91.382812 187.46875 L 92.585938 185.738281 L 95.167969 182.035156 Z M 127.675781 187.496094 " fill-opacity="1" fill-rule="nonzero" />
  <path fill="#36454f" d="M 127.675781 187.496094 L 95.28125 192.941406 L 92.59375 189.175781 L 91.398438 187.496094 Z M 127.675781 187.496094 " fill-opacity="1" fill-rule="nonzero" />
  <path fill="#080707" d="M 91.398438 187.496094 L 91.363281 187.496094 L 91.382812 187.46875 Z M 91.398438 187.496094 " fill-opacity="1" fill-rule="nonzero" />
  <path fill="#080707" d="M 85.875 193.074219 L 85.847656 193.09375 L 85.847656 193.050781 Z M 85.875 193.074219 " fill-opacity="1" fill-rule="nonzero" />
  <path fill="#d9d9d9" d="M 80.335938 187.496094 L 80.3125 187.527344 L 80.292969 187.496094 Z M 80.335938 187.496094 " fill-opacity="1" fill-rule="nonzero" />
  <g clip-path="url(#303efd01cd)">
    <path fill="#d9d9d9" d="M 85.847656 145.667969 L 85.847656 181.945312 L 85.820312 181.925781 L 84.171875 180.75 L 80.402344 178.066406 Z M 85.847656 145.667969 " fill-opacity="1" fill-rule="nonzero" />
  </g>
  <path fill="#d9d9d9" d="M 85.847656 181.902344 L 85.847656 181.945312 L 85.820312 181.925781 Z M 85.847656 181.902344 " fill-opacity="1" fill-rule="nonzero" />
  <path fill="#36454f" d="M 85.847656 181.945312 L 85.847656 187.496094 L 66.550781 168.199219 L 80.402344 178.066406 L 84.171875 180.75 L 85.820312 181.925781 Z M 85.847656 181.945312 " fill-opacity="1" fill-rule="nonzero" />
  <path fill="#080707" d="M 91.398438 187.496094 L 91.363281 187.496094 L 91.382812 187.46875 Z M 91.398438 187.496094 " fill-opacity="1" fill-rule="nonzero" />
  <path fill="#d9d9d9" d="M 85.847656 187.496094 L 80.292969 187.496094 L 79.101562 185.820312 L 76.414062 182.054688 L 66.550781 168.199219 Z M 85.847656 187.496094 " fill-opacity="1" fill-rule="nonzero" />
  <path fill="#d9d9d9" d="M 80.335938 187.496094 L 80.3125 187.527344 L 80.292969 187.496094 Z M 80.335938 187.496094 " fill-opacity="1" fill-rule="nonzero" />
  <path fill="#36454f" d="M 104.941406 167.996094 L 95.167969 182.035156 L 92.585938 185.738281 L 91.382812 187.46875 L 91.363281 187.496094 L 85.847656 187.496094 L 89.050781 184.226562 L 91.761719 181.460938 L 91.867188 181.480469 L 91.851562 181.371094 Z M 104.941406 167.996094 " fill-opacity="1" fill-rule="nonzero" />
  <path fill="#d9d9d9" d="M 105.148438 206.800781 L 85.847656 187.496094 L 91.398438 187.496094 L 92.59375 189.175781 L 95.28125 192.941406 Z M 105.148438 206.800781 " fill-opacity="1" fill-rule="nonzero" />
  <path fill="#36454f" d="M 105.148438 206.800781 L 91.292969 196.929688 L 87.523438 194.246094 L 85.875 193.074219 L 85.847656 193.050781 L 85.847656 187.496094 Z M 105.148438 206.800781 " fill-opacity="1" fill-rule="nonzero" />
  <g clip-path="url(#5e9d00601a)">
    <path fill="#36454f" d="M 85.847656 193.09375 L 85.847656 229.328125 L 80.421875 197.042969 L 84.246094 194.257812 Z M 85.847656 193.09375 " fill-opacity="1" fill-rule="nonzero" />
  </g>
  <path fill="#d9d9d9" d="M 85.847656 187.496094 L 85.847656 193.09375 L 84.246094 194.257812 L 80.421875 197.042969 L 66.753906 207 L 79.847656 193.628906 L 79.9375 193.535156 L 82.644531 190.769531 Z M 85.847656 187.496094 " fill-opacity="1" fill-rule="nonzero" />
  <path fill="#080707" d="M 85.875 193.074219 L 85.847656 193.09375 L 85.847656 193.050781 Z M 85.875 193.074219 " fill-opacity="1" fill-rule="nonzero" />
  <path fill="#080707" d="M 91.867188 181.480469 L 91.761719 181.460938 L 91.851562 181.371094 Z M 91.867188 181.480469 " fill-opacity="1" fill-rule="nonzero" />
  <path fill="#d9d9d9" d="M 104.941406 167.996094 L 91.851562 181.371094 L 91.761719 181.460938 L 89.050781 184.226562 L 85.847656 187.496094 L 85.847656 181.902344 L 87.449219 180.738281 L 91.277344 177.949219 Z M 104.941406 167.996094 " fill-opacity="1" fill-rule="nonzero" />
  <path fill="#36454f" d="M 85.847656 187.496094 L 82.644531 190.769531 L 79.9375 193.535156 L 79.847656 193.628906 L 66.753906 207 L 76.53125 192.964844 L 79.113281 189.253906 L 80.3125 187.527344 L 80.335938 187.496094 Z M 85.847656 187.496094 " fill-opacity="1" fill-rule="nonzero" />
  <g clip-path="url(#01d756fa57)">
    <path fill="#36454f" d="M 85.855469 145.667969 C 84.484375 145.667969 83.117188 145.734375 81.753906 145.867188 C 80.390625 146.003906 79.035156 146.203125 77.691406 146.472656 C 76.347656 146.738281 75.019531 147.070312 73.710938 147.46875 C 72.398438 147.867188 71.109375 148.328125 69.84375 148.851562 C 68.578125 149.375 67.339844 149.960938 66.132812 150.609375 C 64.925781 151.253906 63.75 151.957031 62.609375 152.71875 C 61.472656 153.480469 60.371094 154.292969 59.3125 155.164062 C 58.253906 156.035156 57.238281 156.953125 56.269531 157.921875 C 55.300781 158.890625 54.382812 159.90625 53.515625 160.964844 C 52.644531 162.023438 51.828125 163.121094 51.066406 164.261719 C 50.308594 165.402344 49.601562 166.574219 48.957031 167.78125 C 48.3125 168.992188 47.726562 170.226562 47.203125 171.496094 C 46.675781 172.761719 46.214844 174.050781 45.820312 175.359375 C 45.421875 176.671875 45.089844 178 44.820312 179.34375 C 44.554688 180.6875 44.351562 182.039062 44.21875 183.402344 C 44.085938 184.769531 44.015625 186.132812 44.015625 187.503906 C 44.015625 188.875 44.085938 190.242188 44.21875 191.605469 C 44.351562 192.96875 44.554688 194.324219 44.820312 195.667969 C 45.089844 197.011719 45.421875 198.339844 45.820312 199.648438 C 46.214844 200.960938 46.675781 202.25 47.203125 203.515625 C 47.726562 204.78125 48.3125 206.019531 48.957031 207.226562 C 49.601562 208.433594 50.308594 209.609375 51.066406 210.75 C 51.828125 211.886719 52.644531 212.988281 53.515625 214.046875 C 54.382812 215.105469 55.300781 216.121094 56.269531 217.089844 C 57.238281 218.058594 58.253906 218.976562 59.3125 219.847656 C 60.371094 220.714844 61.472656 221.53125 62.609375 222.292969 C 63.75 223.054688 64.925781 223.757812 66.132812 224.402344 C 67.339844 225.046875 68.578125 225.632812 69.84375 226.15625 C 71.109375 226.683594 72.398438 227.144531 73.710938 227.539062 C 75.019531 227.9375 76.347656 228.269531 77.691406 228.539062 C 79.035156 228.804688 80.390625 229.007812 81.753906 229.140625 C 83.117188 229.273438 84.484375 229.34375 85.855469 229.34375 C 87.226562 229.34375 88.59375 229.273438 89.957031 229.140625 C 91.320312 229.007812 92.671875 228.804688 94.015625 228.539062 C 95.359375 228.269531 96.6875 227.9375 98 227.539062 C 99.3125 227.144531 100.597656 226.683594 101.863281 226.15625 C 103.132812 225.632812 104.367188 225.046875 105.578125 224.402344 C 106.785156 223.757812 107.960938 223.054688 109.097656 222.292969 C 110.238281 221.53125 111.335938 220.714844 112.394531 219.847656 C 113.457031 218.976562 114.46875 218.058594 115.4375 217.089844 C 116.40625 216.121094 117.328125 215.105469 118.195312 214.046875 C 119.066406 212.988281 119.878906 211.886719 120.640625 210.75 C 121.402344 209.609375 122.105469 208.433594 122.753906 207.226562 C 123.398438 206.019531 123.984375 204.78125 124.507812 203.515625 C 125.03125 202.25 125.492188 200.960938 125.890625 199.648438 C 126.289062 198.339844 126.621094 197.011719 126.886719 195.667969 C 127.15625 194.324219 127.355469 192.96875 127.492188 191.605469 C 127.625 190.242188 127.691406 188.875 127.691406 187.503906 C 127.691406 186.136719 127.621094 184.769531 127.484375 183.40625 C 127.351562 182.042969 127.148438 180.691406 126.878906 179.347656 C 126.609375 178.003906 126.277344 176.675781 125.878906 175.367188 C 125.480469 174.054688 125.019531 172.769531 124.492188 171.503906 C 123.96875 170.238281 123.382812 169 122.738281 167.792969 C 122.089844 166.585938 121.386719 165.414062 120.625 164.273438 C 119.863281 163.136719 119.046875 162.035156 118.179688 160.976562 C 117.3125 159.917969 116.390625 158.90625 115.421875 157.9375 C 114.453125 156.96875 113.441406 156.050781 112.382812 155.179688 C 111.324219 154.3125 110.226562 153.496094 109.085938 152.734375 C 107.949219 151.972656 106.773438 151.269531 105.566406 150.621094 C 104.359375 149.976562 103.121094 149.390625 101.855469 148.867188 C 100.59375 148.339844 99.304688 147.878906 97.992188 147.480469 C 96.683594 147.082031 95.355469 146.75 94.011719 146.480469 C 92.671875 146.210938 91.316406 146.007812 89.953125 145.875 C 88.589844 145.738281 87.222656 145.667969 85.855469 145.667969 Z M 85.855469 228.21875 C 84.519531 228.21875 83.191406 228.15625 81.863281 228.023438 C 80.535156 227.894531 79.21875 227.699219 77.910156 227.4375 C 76.605469 227.175781 75.3125 226.855469 74.035156 226.46875 C 72.757812 226.078125 71.503906 225.632812 70.273438 225.121094 C 69.042969 224.609375 67.835938 224.042969 66.660156 223.414062 C 65.484375 222.785156 64.34375 222.097656 63.234375 221.359375 C 62.125 220.617188 61.054688 219.824219 60.023438 218.976562 C 58.996094 218.132812 58.007812 217.238281 57.066406 216.292969 C 56.121094 215.351562 55.226562 214.363281 54.382812 213.335938 C 53.535156 212.304688 52.742188 211.234375 52 210.125 C 51.261719 209.015625 50.574219 207.875 49.945312 206.699219 C 49.320312 205.523438 48.75 204.316406 48.238281 203.085938 C 47.730469 201.855469 47.28125 200.601562 46.894531 199.324219 C 46.503906 198.046875 46.183594 196.757812 45.921875 195.449219 C 45.660156 194.140625 45.464844 192.824219 45.335938 191.496094 C 45.203125 190.167969 45.140625 188.839844 45.140625 187.503906 C 45.140625 186.171875 45.203125 184.839844 45.335938 183.515625 C 45.464844 182.1875 45.660156 180.871094 45.921875 179.5625 C 46.183594 178.253906 46.503906 176.960938 46.894531 175.6875 C 47.28125 174.410156 47.730469 173.15625 48.238281 171.925781 C 48.75 170.691406 49.320312 169.488281 49.945312 168.3125 C 50.574219 167.136719 51.261719 165.992188 52 164.886719 C 52.742188 163.777344 53.535156 162.707031 54.382812 161.675781 C 55.226562 160.644531 56.121094 159.65625 57.066406 158.714844 C 58.007812 157.773438 58.996094 156.878906 60.023438 156.03125 C 61.054688 155.1875 62.125 154.390625 63.234375 153.652344 C 64.34375 152.910156 65.484375 152.226562 66.660156 151.597656 C 67.835938 150.96875 69.042969 150.398438 70.273438 149.890625 C 71.503906 149.378906 72.757812 148.929688 74.035156 148.542969 C 75.3125 148.15625 76.605469 147.832031 77.910156 147.570312 C 79.21875 147.3125 80.535156 147.117188 81.863281 146.984375 C 83.191406 146.855469 84.519531 146.789062 85.855469 146.789062 C 87.1875 146.789062 88.519531 146.855469 89.84375 146.984375 C 91.171875 147.117188 92.488281 147.3125 93.796875 147.570312 C 95.105469 147.832031 96.398438 148.15625 97.671875 148.542969 C 98.949219 148.929688 100.203125 149.378906 101.4375 149.890625 C 102.667969 150.398438 103.871094 150.96875 105.046875 151.597656 C 106.222656 152.226562 107.367188 152.910156 108.476562 153.652344 C 109.582031 154.390625 110.652344 155.1875 111.683594 156.03125 C 112.714844 156.878906 113.703125 157.773438 114.644531 158.714844 C 115.585938 159.65625 116.480469 160.644531 117.328125 161.675781 C 118.175781 162.707031 118.96875 163.777344 119.707031 164.886719 C 120.449219 165.992188 121.132812 167.136719 121.761719 168.3125 C 122.390625 169.488281 122.960938 170.691406 123.46875 171.925781 C 123.980469 173.15625 124.429688 174.410156 124.816406 175.6875 C 125.203125 176.960938 125.527344 178.253906 125.789062 179.5625 C 126.046875 180.871094 126.242188 182.1875 126.375 183.515625 C 126.503906 184.839844 126.570312 186.171875 126.570312 187.503906 C 126.566406 188.839844 126.5 190.167969 126.371094 191.496094 C 126.238281 192.820312 126.042969 194.136719 125.78125 195.445312 C 125.519531 196.753906 125.195312 198.042969 124.808594 199.320312 C 124.417969 200.59375 123.96875 201.847656 123.457031 203.078125 C 122.949219 204.308594 122.378906 205.515625 121.75 206.6875 C 121.121094 207.863281 120.433594 209.007812 119.695312 210.113281 C 118.953125 211.222656 118.160156 212.292969 117.3125 213.324219 C 116.46875 214.351562 115.574219 215.339844 114.632812 216.28125 C 113.6875 217.222656 112.703125 218.117188 111.671875 218.964844 C 110.640625 219.808594 109.574219 220.605469 108.464844 221.34375 C 107.355469 222.085938 106.214844 222.769531 105.039062 223.398438 C 103.863281 224.027344 102.660156 224.597656 101.429688 225.109375 C 100.199219 225.621094 98.945312 226.070312 97.667969 226.457031 C 96.394531 226.84375 95.101562 227.167969 93.792969 227.429688 C 92.488281 227.691406 91.171875 227.886719 89.84375 228.019531 C 88.515625 228.152344 87.1875 228.21875 85.855469 228.21875 Z M 85.855469 228.21875 " fill-opacity="1" fill-rule="nonzero" />
  </g>
  </g>
</svg>