<?xml version="1.0" encoding="UTF-8"?>
<svg id="Layer_1" data-name="Layer 1" xmlns="http://www.w3.org/2000/svg" viewBox="0 0 1115.91 233.71">
  <g>
    <path d="M157.64,87.57c1.19-.28,2.62-.2,3.8.12l40.36,16.03c1.23,1.14,1.62,3,1.8,4.62.85,7.7-.59,16.86-.02,24.72l-30.04,60.74-32.07,18.84-20.85-18.97,33.91-102.31c.56-1.6,1.27-3.36,3.09-3.79Z" style="fill: #fff;"/>
    <path d="M61.37,49.49c1.59-.31,2.92.53,4.35.95,7.9,2.36,24.55,8.59,31.7,12.32,2.39,1.25,5.72,3.87,6.15,6.71.46,3.02-5.06,22.44-6.18,27.08-4.96,20.46-10.41,40.8-15.28,61.29-.44,1.87-1.92,1.17-3.19.44-3.12-1.8-16.43-14.02-19.52-17.16-2.59-2.63-4.15-4.22-4.68-8.16,2.03-25.5,1-52.49,3.56-77.81.21-2.04.63-5.19,3.08-5.66Z" style="fill: #fff;"/>
    <path d="M52.71,45.35l-4.13,83.53-1.5.77c-15.71-12.7-30.71-26.48-45.84-39.93-.58-.9-.64-1.89-.74-2.92-.54-5.28-.75-22.12,0-27.09.22-1.49.64-1.59,1.71-2.42,3.15-2.46,25.75-15.17,29.01-15.92,8.25-1.89,14.1,1.03,21.51,3.99Z" style="fill: #fff;"/>
    <path d="M.51,99.84l38.06,33.24c4.52,4.42,9.58,8.52,9.19,15.6l-2.78,52.94L.51,176.18v-76.34Z" style="fill: #fff;"/>
    <path d="M76.49,15.13c18.42-.02,36.91.37,55.24,1.86l33.55,19.18.67,1.43-9.61,27.58-2.13,1.11c-31.57-11.46-62.97-24.18-94.24-36.67-1.46-1.28-3.49-2.4-1.71-4.3.95-1.01,16.88-9.93,18.24-10.19Z" style="fill: #fff;"/>
    <path d="M126,75.18c1.18-.29,2.21-.08,3.36.11,1.87.32,19.57,7.34,20.19,8.24.4.58.55,1.11.41,1.81l-33.89,101.87c-.25.73-.74,1.58-1.62,1.58-.95,0-13.27-10.86-13.93-12.21-.36-.72-.65-1.37-.53-2.21l23.42-95.82c.54-1.49.83-2.93,2.59-3.37Z" style="fill: #fff;"/>
    <path d="M53.69,147.07l25.22,22.72-9.5,38.62c-2.01,4.35-4.13,4.73-8.24,2.93-1.66-.73-9.94-5.46-10.22-6.74l2.74-57.53Z" style="fill: #fff;"/>
    <path d="M203.53,58.2c.57.98.33,20.27.09,22.63-.39,3.81-.52,4.47-4.52,3.57-6-1.36-26.79-9.78-32.63-12.76-1.41-.72-3.25-1.54-3.6-3.31-.88-4.53,7.97-22.39,8.64-28.08l32.01,17.95Z" style="fill: #fff;"/>
    <path d="M97.5,186.05c.53-.13,1.34.6,1.8.91,1.29.86,11.21,9.61,11.9,10.57.36.5.68.96.7,1.61-1.97,3.77-9.86,34.33-11.67,34.57-.62.08-10.15-5.65-10.76-6.2-1.97-1.78-1.5-3.85-1.19-6.19.85-6.5,5.9-27.54,8.27-33.45.21-.53.33-1.66.95-1.81Z" style="fill: #fff;"/>
    <path d="M133.47,217.67l-25.67,14.68c1.35-3.24,8.22-27.06,9.63-27.77,1.04-.52,1.76.2,2.52.72,4.57,3.14,9.27,8.65,13.52,12.37Z" style="fill: #fff;"/>
    <path d="M203.61,150.28v25.9c0,.94-14.48,8.9-16.07,9.6-.37.16-1.2.59-1.35.02l17.43-35.53Z" style="fill: #fff;"/>
    <path d="M117.42,9.52l-28.88-1.14C90.36,6.77,101.34-.09,102.9,0c.77.05,12.76,6.75,13.58,7.48.73.64,1.11.95.93,2.04Z" style="fill: #fff;"/>
  </g>
  <g>
    <path d="M287.64,165.02h-16.74v-88.05h-30.12v-14.36h76.98v14.36h-30.12v88.05Z" style="fill: #fff;"/>
    <path d="M406.58,165.02h-57.93V62.61h57.93v14.15h-41.19v27.88h38.6v14.01h-38.6v32.15h41.19v14.22Z" style="fill: #fff;"/>
    <path d="M502.97,137.21c0,9.11-3.29,16.25-9.88,21.43-6.58,5.18-15.67,7.77-27.25,7.77s-21.06-1.8-28.44-5.39v-15.83c4.67,2.19,9.63,3.92,14.88,5.18,5.25,1.26,10.15,1.89,14.67,1.89,6.63,0,11.52-1.26,14.67-3.78,3.15-2.52,4.73-5.91,4.73-10.16,0-3.83-1.45-7.08-4.34-9.74-2.9-2.66-8.87-5.81-17.93-9.46-9.34-3.78-15.92-8.1-19.75-12.96-3.83-4.86-5.74-10.69-5.74-17.51,0-8.55,3.03-15.27,9.11-20.17,6.07-4.9,14.22-7.36,24.45-7.36s19.57,2.15,29.28,6.44l-5.32,13.66c-9.11-3.83-17.23-5.74-24.38-5.74-5.42,0-9.53,1.18-12.33,3.54-2.8,2.36-4.2,5.48-4.2,9.35,0,2.66.56,4.94,1.68,6.83,1.12,1.89,2.97,3.68,5.53,5.36,2.57,1.68,7.19,3.9,13.87,6.65,7.52,3.13,13.03,6.05,16.53,8.76s6.07,5.77,7.7,9.18c1.63,3.41,2.45,7.42,2.45,12.05Z" style="fill: #fff;"/>
    <path d="M597.05,137.21c0,9.11-3.29,16.25-9.88,21.43-6.58,5.18-15.67,7.77-27.25,7.77s-21.06-1.8-28.44-5.39v-15.83c4.67,2.19,9.63,3.92,14.88,5.18,5.25,1.26,10.15,1.89,14.67,1.89,6.63,0,11.52-1.26,14.67-3.78,3.15-2.52,4.73-5.91,4.73-10.16,0-3.83-1.45-7.08-4.34-9.74-2.9-2.66-8.87-5.81-17.93-9.46-9.34-3.78-15.92-8.1-19.75-12.96-3.83-4.86-5.74-10.69-5.74-17.51,0-8.55,3.03-15.27,9.11-20.17,6.07-4.9,14.22-7.36,24.45-7.36s19.57,2.15,29.28,6.44l-5.32,13.66c-9.11-3.83-17.23-5.74-24.38-5.74-5.42,0-9.53,1.18-12.33,3.54-2.8,2.36-4.2,5.48-4.2,9.35,0,2.66.56,4.94,1.68,6.83,1.12,1.89,2.97,3.68,5.53,5.36,2.57,1.68,7.19,3.9,13.87,6.65,7.52,3.13,13.03,6.05,16.53,8.76,3.5,2.71,6.07,5.77,7.7,9.18,1.63,3.41,2.45,7.42,2.45,12.05Z" style="fill: #fff;"/>
    <path d="M690.01,165.02h-57.93V62.61h57.93v14.15h-41.19v27.88h38.59v14.01h-38.59v32.15h41.19v14.22Z" style="fill: #fff;"/>
    <path d="M744.09,124.11v40.91h-16.74V62.61h28.93c13.21,0,23,2.48,29.35,7.43s9.53,12.42,9.53,22.41c0,12.75-6.63,21.83-19.89,27.25l28.93,45.32h-19.05l-24.51-40.91h-16.53ZM744.09,110.24h11.63c7.8,0,13.45-1.44,16.95-4.34,3.5-2.89,5.25-7.19,5.25-12.89s-1.89-9.95-5.67-12.47c-3.78-2.52-9.48-3.78-17.09-3.78h-11.07v33.48Z" style="fill: #fff;"/>
    <path d="M897.78,165.02l-10.23-28.44h-39.16l-10.02,28.44h-17.65l38.31-102.83h18.21l38.31,102.83h-17.79ZM883.14,122.15l-9.6-27.88c-.7-1.87-1.67-4.81-2.91-8.83-1.24-4.02-2.09-6.96-2.56-8.83-1.26,5.74-3.11,12.02-5.53,18.84l-9.24,26.69h29.84Z" style="fill: #fff;"/>
    <path d="M987.86,75.5c-9.62,0-17.18,3.41-22.69,10.23-5.51,6.82-8.27,16.23-8.27,28.23s2.65,22.07,7.95,28.51c5.3,6.44,12.97,9.66,23.01,9.66,4.34,0,8.55-.43,12.61-1.3,4.06-.86,8.29-1.97,12.68-3.33v14.36c-8.03,3.03-17.14,4.55-27.32,4.55-14.99,0-26.5-4.54-34.53-13.63-8.03-9.08-12.05-22.07-12.05-38.98,0-10.65,1.95-19.96,5.85-27.95,3.9-7.99,9.54-14.1,16.92-18.35,7.38-4.25,16.04-6.37,25.98-6.37,10.46,0,20.13,2.19,29,6.58l-6.02,13.94c-3.46-1.64-7.11-3.07-10.96-4.31-3.85-1.24-7.9-1.86-12.15-1.86Z" style="fill: #fff;"/>
    <path d="M1085.79,165.02h-16.74v-88.05h-30.12v-14.36h76.98v14.36h-30.12v88.05Z" style="fill: #fff;"/>
  </g>
</svg>