<svg width="410" height="126" viewBox="0 0 410 126" fill="none" xmlns="http://www.w3.org/2000/svg">
<g clip-path="url(#clip0_1_77)">
<path d="M155.589 75.415L163.449 66.1486L156.281 57.918C155.312 56.7718 154.842 55.7361 154.842 54.6037C154.842 52.1456 156.682 50.5989 158.855 50.5989C160.571 50.5989 161.775 51.3998 162.923 52.836L168.597 60.39L174.382 52.836C175.42 51.5794 176.624 50.5989 178.16 50.5989C180.457 50.5989 182.228 52.2008 182.228 54.3689C182.228 55.5704 181.716 56.4818 181.024 57.338L173.565 66.0381L181.246 74.8488C182.215 75.995 182.685 77.0169 182.685 78.1631C182.685 80.6212 180.845 82.1679 178.672 82.1679C176.956 82.1679 175.752 81.3669 174.603 79.9307L168.417 71.8106L162.231 79.9307C161.194 81.1874 159.99 82.1679 158.453 82.1679C156.156 82.1679 154.385 80.566 154.385 78.3979C154.385 77.1964 154.842 76.285 155.589 75.4288V75.415Z" fill="#E6E4DE"/>
<path d="M203.54 82.3889C194.31 82.3889 187.487 75.9259 187.487 66.5353V66.4248C187.487 57.6694 193.742 50.4608 202.682 50.4608C212.95 50.4608 217.476 58.8709 217.476 65.2234C217.476 67.7367 215.704 69.3939 213.407 69.3939H196.15C197.008 73.3435 199.762 75.4011 203.665 75.4011C206.073 75.4011 208.079 74.6554 209.85 73.3435C210.487 72.8878 211.054 72.653 211.968 72.653C213.919 72.653 215.344 74.1445 215.344 76.0916C215.344 77.2378 214.832 78.094 214.196 78.6602C211.497 80.9527 208.01 82.3751 203.526 82.3751L203.54 82.3889ZM209.159 63.9667C208.647 60.0723 206.349 57.4485 202.682 57.4485C199.015 57.4485 196.718 60.0171 196.026 63.9667H209.159Z" fill="#E6E4DE"/>
<path d="M225.004 55.0456C225.004 52.6427 226.955 50.6955 229.363 50.6955C231.771 50.6955 233.722 52.6427 233.722 55.0456V56.4266C234.982 53.4575 237.044 50.7093 239.631 50.7093C242.219 50.7093 243.88 52.477 243.88 54.9489C243.88 57.2413 242.385 58.6085 240.614 59.009C236.199 60.0447 233.736 63.4143 233.736 69.5872V77.7074C233.736 80.1103 231.785 82.0574 229.377 82.0574C226.969 82.0574 225.018 80.1103 225.018 77.7074V55.0456H225.004Z" fill="#E6E4DE"/>
<path d="M249.664 43.9426C249.664 41.5397 251.616 39.5925 254.024 39.5925C256.432 39.5925 258.383 41.5397 258.383 43.9426V55.4461C260.5 52.5875 263.434 50.4746 267.959 50.4746C275.128 50.4746 281.95 56.0813 281.95 66.3281V66.4386C281.95 76.6854 275.238 82.2922 267.959 82.2922C263.309 82.2922 260.445 80.1793 258.383 77.7212V77.7764C258.383 80.1241 256.432 82.0712 254.024 82.0712C251.616 82.0712 249.664 80.1241 249.664 77.7212V43.9702V43.9426ZM273.232 66.4248V66.3143C273.232 61.2185 269.786 57.849 265.717 57.849C261.649 57.849 258.258 61.2185 258.258 66.3143V66.4248C258.258 71.5206 261.635 74.8902 265.717 74.8902C269.8 74.8902 273.232 71.5758 273.232 66.4248Z" fill="#E6E4DE"/>
<path d="M304.065 82.3889C294.834 82.3889 288.012 75.9259 288.012 66.5353V66.4248C288.012 57.6694 294.267 50.4608 303.207 50.4608C313.475 50.4608 318 58.8709 318 65.2234C318 67.7367 316.229 69.3939 313.932 69.3939H296.675C297.533 73.3435 300.287 75.4011 304.189 75.4011C306.597 75.4011 308.604 74.6554 310.375 73.3435C311.012 72.8878 311.579 72.653 312.492 72.653C314.444 72.653 315.869 74.1445 315.869 76.0916C315.869 77.2378 315.357 78.094 314.72 78.6602C312.022 80.9527 308.534 82.3751 304.051 82.3751L304.065 82.3889ZM309.683 63.9667C309.171 60.0723 306.874 57.4485 303.207 57.4485C299.539 57.4485 297.242 60.0171 296.55 63.9667H309.683Z" fill="#E6E4DE"/>
<path d="M325.528 55.0456C325.528 52.6427 327.48 50.6955 329.888 50.6955C332.296 50.6955 334.247 52.6427 334.247 55.0456V56.4266C335.506 53.4575 337.568 50.7093 340.156 50.7093C342.744 50.7093 344.404 52.477 344.404 54.9489C344.404 57.2413 342.91 58.6085 341.138 59.009C336.724 60.0447 334.261 63.4143 334.261 69.5872V77.7074C334.261 80.1103 332.309 82.0574 329.901 82.0574C327.494 82.0574 325.542 80.1103 325.542 77.7074V55.0456H325.528Z" fill="#E6E4DE"/>
<path d="M378.24 77.6935C378.24 80.0964 376.289 82.0436 373.881 82.0436C371.473 82.0436 369.522 80.0964 369.522 77.6935V77.3483C367.515 79.9169 364.941 82.2646 360.527 82.2646C353.939 82.2646 350.092 77.9145 350.092 70.8854V55.0318C350.092 52.6289 352.043 50.6817 354.451 50.6817C356.859 50.6817 358.811 52.6289 358.811 55.0318V68.1372C358.811 72.2525 360.762 74.3792 364.083 74.3792C367.404 74.3792 369.536 72.2663 369.536 68.1372V55.0318C369.536 52.6289 371.487 50.6817 373.895 50.6817C376.303 50.6817 378.254 52.6289 378.254 55.0318V77.6935H378.24Z" fill="#E6E4DE"/>
<path d="M386.668 78.7845C385.755 78.2183 385.007 77.1826 385.007 75.8154C385.007 73.8683 386.502 72.3768 388.453 72.3768C389.09 72.3768 389.712 72.5425 390.169 72.8325C393.089 74.6692 396.023 75.5807 398.486 75.5807C400.95 75.5807 402.153 74.6692 402.153 73.2883V73.1778C402.153 71.2858 399.178 70.6644 395.788 69.6287C391.484 68.372 386.613 66.3696 386.613 60.4176V60.3071C386.613 54.0651 391.664 50.5851 397.85 50.5851C401.06 50.5851 404.381 51.4413 407.371 52.9327C408.63 53.568 409.433 54.7003 409.433 56.1918C409.433 58.139 407.883 59.6304 405.931 59.6304C405.295 59.6304 404.894 59.5199 404.326 59.2299C401.863 58.0285 399.51 57.2828 397.67 57.2828C395.552 57.2828 394.459 58.1942 394.459 59.3957V59.5061C394.459 61.2185 397.379 62.0195 400.714 63.1657C405.018 64.6019 410 66.6596 410 72.2663V72.3768C410 79.185 404.894 82.2784 398.251 82.2784C394.473 82.2784 390.391 81.1874 386.668 78.7845Z" fill="#E6E4DE"/>
</g>
<path d="M0 112.031C0 112.517 0.0173746 112.986 0.0694981 113.456C0.781853 120.492 6.70656 126 13.917 126C20.0328 126 25.2278 122.039 27.0869 116.548L28.4595 111.023L32.612 79.3494C32.612 71.6351 38.8494 65.3803 46.529 65.3803C53.0792 65.3803 58.5695 69.915 60.0463 76.0309L60.8456 81.3649L65.7278 115.819L66.0232 116.757C67.9517 122.143 73.0946 126 79.1235 126H111.736C119.415 126 125.653 119.745 125.653 112.031V79.3494C125.653 71.6351 119.415 65.3803 111.736 65.3803C108.4 65.3803 105.342 66.5618 102.944 68.5251L100.79 70.7317L89.4093 88.7664L87.6197 90.417C85.5695 91.9981 83.0502 93.0232 80.3224 93.2664L79.1409 93.3185C71.4614 93.3185 65.2239 87.0637 65.2239 79.3494C65.2239 72.5907 70.0019 66.9614 76.3436 65.6583L77.5946 65.3803L112.622 60.6371L114.203 60.4286C120.736 59.2819 125.687 53.5483 125.687 46.668V13.9865C125.687 13.8475 125.687 13.6911 125.687 13.5521C125.479 6.60232 120.197 0.920849 113.438 0.104247L79.1583 0C72.2954 0 66.5965 4.98649 65.4498 11.5367L60.6544 46.112L60.3938 48.0753C59.7336 54.5212 54.7297 59.6815 48.3533 60.4981L46.5463 60.6197C38.8668 60.6197 32.6293 54.3649 32.6293 46.6506C32.6293 41.3687 35.5483 36.7819 39.8398 34.4015L41.7683 33.1853L55.4247 24.7066L57.2664 22.8475C59.2471 20.4324 60.4459 17.3398 60.4459 13.9691C60.4459 6.25483 54.2085 0 46.529 0H45.9382L14.9942 0.0521235L13.917 0.0173745C6.23745 0.0173745 0 6.2722 0 13.9865C0 18.8166 2.43243 23.056 6.13321 25.5753L7.31467 26.305L21.1274 34.7317C25.1409 37.1815 27.8166 41.612 27.8166 46.6853C27.8166 50.1429 26.5656 53.305 24.4981 55.7548L10.7722 64.8764L7.31467 67.083L6.56757 67.5174C3.28378 69.5676 0.920849 72.9556 0.225869 76.8996L0.0173745 110.571V112.048" fill="url(#paint0_linear_1_77)"/>
<defs>
<linearGradient id="paint0_linear_1_77" x1="0" y1="63.0174" x2="125.705" y2="63.0174" gradientUnits="userSpaceOnUse">
<stop offset="0.12" stop-color="#0CC2AC"/>
<stop offset="1" stop-color="#0075C7"/>
</linearGradient>
<clipPath id="clip0_1_77">
<rect width="410" height="126" fill="white"/>
</clipPath>
</defs>
</svg>
