<?xml version="1.0" encoding="UTF-8"?>
<svg id="Layer_1" data-name="Layer 1" xmlns="http://www.w3.org/2000/svg" width="681.09" height="208.68" viewBox="0 0 681.09 208.68">
  <defs>
    <style>
      .cls-1 {
        isolation: isolate;
      }

      .cls-2 {
        fill: #8429ff;
      }

      .cls-3 {
        fill: #fff;
      }
    </style>
  </defs>
  <g>
    <g id="Fusion" class="cls-1">
      <g class="cls-1">
        <path class="cls-3" d="M281.31,59.28v43.42h-15.64V4.98h59.89v13.13h-44.25v28.06h42.02v13.12h-42.02Z"/>
        <path class="cls-3" d="M405.82,71.43c0,19.69-14.8,32.67-33.65,32.67s-33.5-12.98-33.5-32.67v-38.53h15.63v38.53c0,12.57,7.82,19.54,17.87,19.54s18.01-6.98,18.01-19.54v-38.53h15.64v38.53Z"/>
        <path class="cls-3" d="M424.66,86.51c6.56,2.37,13.26,4.19,19.97,4.19s12.7-2.51,12.7-8.37c0-4.33-2.79-7.12-12.98-9.5-13.26-3.07-22.34-9.35-22.34-20.24,0-14.1,12.57-21.08,26.25-21.08,7.96,0,15.49,2.1,22.34,5.03l-2.93,12.42c-6.14-2.37-12.57-4.19-18.85-4.19-5.86,0-11.17,2.65-11.17,7.82,0,3.63,2.65,6.57,12.29,8.66,14.24,3.07,22.89,9.21,22.89,20.8,0,14.94-13.26,21.92-27.5,21.92-8.24,0-16.34-1.81-23.73-4.61l3.07-12.84Z"/>
        <path class="cls-3" d="M499.48,4c5.86,0,9.08,3.91,9.08,7.96s-3.21,7.82-9.08,7.82-8.93-3.91-8.93-7.82,3.35-7.96,8.93-7.96ZM491.81,32.9h15.63v69.8h-15.63V32.9Z"/>
        <path class="cls-3" d="M562.16,31.5c21.36,0,37.56,16.06,37.56,36.3s-16.2,36.3-37.56,36.3-37.41-16.06-37.41-36.3,16.19-36.3,37.41-36.3ZM562.16,90.97c12.42,0,21.92-10.05,21.92-23.17s-9.49-23.17-21.92-23.17-21.78,10.19-21.78,23.17,9.49,23.17,21.78,23.17Z"/>
        <path class="cls-3" d="M614.92,32.9h15.64v8.51l.84.28c5.02-6,13.4-10.19,24.43-10.19,13.82,0,25.27,9.91,25.27,29.32v41.88h-15.63v-41.32c0-11.73-6.84-16.75-15.22-16.75s-15.36,3.07-19.68,9.49v48.58h-15.64V32.9Z"/>
      </g>
    </g>
    <g id="by_IPOR" data-name="by IPOR" class="cls-1">
      <g class="cls-1">
        <path class="cls-3" d="M270.2,189.81l-.96,2.94h-3.52v-46.71h5.12v18.24l.38.12c2.11-2.49,5.76-4.28,10.43-4.28,8.57,0,15.42,7.36,15.42,16.64s-7.1,16.64-16.06,16.64c-4.92,0-8.13-1.28-10.81-3.58ZM270.84,169.97v16.38c2.3,1.6,5.63,2.56,9.53,2.56,6.34,0,11.58-5.44,11.58-12.16s-5.25-12.16-11.58-12.16c-3.9,0-7.55,1.47-9.53,5.37Z"/>
        <path class="cls-3" d="M316.2,184.94l.38,1.73h.38l9.02-25.92h5.89l-14.78,37.69c-2.18,5.63-5.06,10.24-13.5,10.24l-.45-4.41c5.25,0,7.55-2.18,9.34-6.98l1.85-5.06-13.88-31.48h5.89l9.85,24.19Z"/>
        <path class="cls-3" d="M354.59,147.96h5.12v44.79h-5.12v-44.79Z"/>
        <path class="cls-3" d="M370.9,147.96h15.29c10.81,0,16.64,6.15,16.64,13.44s-5.82,13.44-16.64,13.44h-10.17v17.91h-5.12v-44.79ZM376.02,152.44v17.91h10.17c7.87,0,11.52-3.96,11.52-8.96s-3.65-8.96-11.52-8.96h-10.17Z"/>
        <path class="cls-3" d="M430.34,147.31c12.16,0,22.46,9.92,22.46,23.04s-9.92,23.04-22.46,23.04-22.4-9.92-22.4-23.04,9.92-23.04,22.4-23.04ZM430.34,188.91c9.34,0,17.34-8,17.34-18.56,0-9.85-7.61-18.56-17.34-18.56s-17.28,8.7-17.28,18.56c0,10.56,7.62,18.56,17.28,18.56Z"/>
        <path class="cls-3" d="M475.63,173.55h-9.41v19.2h-5.12v-44.79h12.86c10.37,0,16,5.82,16,12.8,0,5.31-3.14,9.85-9.09,11.84l12.1,20.16h-6.08l-11.26-19.2ZM466.23,152.44v16.64h7.74c7.42,0,10.88-3.71,10.88-8.32s-3.45-8.32-10.88-8.32h-7.74Z"/>
      </g>
    </g>
  </g>
  <path id="Path_7238" data-name="Path 7238" class="cls-2" d="M198.75,99.37c0-20.6-21.02-38.09-52.5-46.87C137.46,21.02,119.97,0,99.37,0s-38.09,21.02-46.87,52.5C21.02,61.29,0,78.78,0,99.37s21.02,38.09,52.5,46.88c8.79,31.48,26.28,52.5,46.87,52.5s38.09-21.02,46.88-52.5c31.48-8.79,52.5-26.28,52.5-46.88M73.17,37.18c7.32-14.72,16.87-23.16,26.17-23.16s18.88,8.44,26.17,23.16c1.88,3.83,3.52,7.77,4.91,11.81-20.6-3.42-41.63-3.42-62.23,0,1.39-4.04,3.07-7.93,4.95-11.76l.03-.05ZM138.3,99.42c.01,9.02-.73,17.98-2.12,26.89l-63.75-63.79c8.91-1.39,17.92-2.08,26.94-2.06,11.86-.04,23.69,1.17,35.3,3.62,2.45,11.61,3.66,23.34,3.62,35.2M60.45,99.31c-.01-9.02.69-17.96,2.07-26.88l63.79,63.8c-8.91,1.39-17.92,2.08-26.94,2.06-11.86.04-23.69-1.18-35.3-3.62-2.45-11.61-3.66-23.44-3.62-35.3v-.06ZM37.19,125.54c-14.72-7.32-23.16-16.87-23.16-26.17s8.45-18.88,23.16-26.17c3.83-1.88,7.77-3.52,11.81-4.91-3.42,20.6-3.42,41.63,0,62.23-4.04-1.39-7.92-3.06-11.75-4.95l-.06-.03ZM125.6,161.6c-7.32,14.72-16.87,23.16-26.17,23.16s-18.88-8.45-26.17-23.16c-1.88-3.83-3.52-7.77-4.91-11.81,10.28,1.72,20.68,2.58,31.11,2.56,10.42.02,20.83-.84,31.11-2.56-1.39,4.04-3.05,7.93-4.93,11.76l-.03.05ZM161.61,125.58c-3.83,1.88-7.75,3.56-11.79,4.94,1.73-10.28,2.58-20.68,2.56-31.11.02-10.42-.84-20.83-2.56-31.11,4.04,1.38,7.98,3.02,11.81,4.91,14.72,7.32,23.16,16.87,23.16,26.17s-8.44,18.88-23.16,26.17h-.02Z"/>
</svg>