<svg width="339" height="178" viewBox="0 0 339 178" fill="none" xmlns="http://www.w3.org/2000/svg">
<path fill-rule="evenodd" clip-rule="evenodd" d="M250.793 2.62708e-05C202.262 2.62708e-05 162.919 39.6974 162.919 88.6667C162.919 137.636 202.262 177.333 250.793 177.333C299.324 177.333 338.667 137.636 338.667 88.6667C338.667 39.6974 299.324 2.62708e-05 250.793 2.62708e-05ZM0.936647 17.5455C-1.73121 12.8639 1.61791 7.02256 6.96998 7.02255L62.6017 7.02247H115.959L163.09 7.02255C168.054 7.02256 171.422 12.1168 169.516 16.7419L107.28 167.724C106.2 170.343 103.665 172.05 100.854 172.05H39.2963C34.3319 172.05 30.9639 166.956 32.8704 162.331L51.4627 117.227C53.124 113.196 52.8338 108.616 50.6775 104.832L0.936647 17.5455ZM173.956 5.56035C173.956 5.502 174.015 5.46242 174.068 5.48483C174.11 5.50218 174.129 5.55005 174.112 5.59176C174.078 5.67435 173.956 5.6498 173.956 5.56035Z" fill="black"/>
</svg>
