<svg width="500" height="500" viewBox="0 0 500 500" fill="none" xmlns="http://www.w3.org/2000/svg">
<rect width="500" height="500" fill="#D6FF34"/>
<path fill-rule="evenodd" clip-rule="evenodd" d="M330.793 161C282.262 161 242.919 200.697 242.919 249.667C242.919 298.636 282.262 338.333 330.793 338.333C379.324 338.333 418.667 298.636 418.667 249.667C418.667 200.697 379.324 161 330.793 161ZM80.9366 178.545C78.2688 173.864 81.6179 168.023 86.97 168.023L142.602 168.022H195.959L243.09 168.023C248.054 168.023 251.422 173.117 249.516 177.742L187.28 328.724C186.2 331.343 183.665 333.05 180.854 333.05H119.296C114.332 333.05 110.964 327.956 112.87 323.331L131.463 278.227C133.124 274.196 132.834 269.616 130.677 265.832L80.9366 178.545ZM253.956 166.56C253.956 166.502 254.015 166.462 254.068 166.485C254.11 166.502 254.129 166.55 254.112 166.592C254.078 166.674 253.956 166.65 253.956 166.56Z" fill="black"/>
</svg>
