<svg width="500" height="500" viewBox="0 0 500 500" fill="none" xmlns="http://www.w3.org/2000/svg">
<mask id="mask0_1657_13" style="mask-type:alpha" maskUnits="userSpaceOnUse" x="0" y="0" width="500" height="500">
<circle cx="250" cy="250" r="250" fill="#FBA7FF"/>
</mask>
<g mask="url(#mask0_1657_13)">
<circle cx="250" cy="250" r="250" fill="#4E6FFF"/>
<circle cx="250" cy="250" r="250" fill="#4E6FFF"/>
<path d="M257.314 373.724C221.021 373.724 189.225 349.339 171.956 313.062H286.169V262.787H158.682C158.364 258.72 158.193 254.646 158.193 250.485C158.193 246.364 158.363 242.24 158.682 238.228H286.171V187.943H171.957C189.226 151.668 221.021 127.292 257.315 127.292C292.004 127.292 324.668 150.472 342.555 187.761L388 166.078C361.655 111.118 311.583 77 257.314 77C216.517 77 178.439 95.609 150.092 129.445C135.835 146.466 124.942 166.327 117.78 187.943H63V238.227H108.181C107.939 242.266 107.813 246.391 107.813 250.484C107.813 254.62 107.939 258.693 108.181 262.785H63V313.06H117.78C124.942 334.674 135.835 354.513 150.093 371.518C178.44 405.356 216.519 424 257.315 424C311.585 424 361.655 389.886 388 334.928L342.555 313.205C324.667 350.541 292.003 373.724 257.314 373.724Z" fill="black"/>
</g>
</svg>
